<svg width="126" height="130" version="1.1" xmlns="http://www.w3.org/2000/svg" desc="Created with imagetracer.js version 1.2.6" ><path fill="rgb(101,101,101)" stroke="rgb(101,101,101)" stroke-width="1" opacity="1" d="M 24.5 21 L 33 21.5 L 24.5 22 L 24.5 21 Z " /><path fill="rgb(101,101,101)" stroke="rgb(101,101,101)" stroke-width="1" opacity="1" d="M 50.5 21 L 60.5 21 L 61 23 L 52.5 22 Q 50.7 24.5 50.5 21 Z " /><path fill="rgb(101,101,101)" stroke="rgb(101,101,101)" stroke-width="1" opacity="1" d="M 37.5 22 L 36.5 24 L 37.5 22 Z " /><path fill="rgb(101,101,101)" stroke="rgb(101,101,101)" stroke-width="1" opacity="1" d="M 45.5 22 Q 47.8 21.3 47 23.5 L 45.5 22 Z " /><path fill="rgb(101,101,101)" stroke="rgb(101,101,101)" stroke-width="1" opacity="1" d="M 42.5 23 L 43.5 25 Q 40.7 25.7 42.5 23 Z " /><path fill="rgb(101,101,101)" stroke="rgb(101,101,101)" stroke-width="1" opacity="1" d="M 19.5 24 L 22 25 L 21.5 27 L 20.5 26 L 18 27.5 Q 21.1 25.8 19.5 24 Z " /><path fill="rgb(101,101,101)" stroke="rgb(101,101,101)" stroke-width="1" opacity="1" d="M 68.5 24 L 72 25.5 L 70.5 25 Q 67.5 25.5 68.5 24 Z " /><path fill="rgb(101,101,101)" stroke="rgb(101,101,101)" stroke-width="1" opacity="1" d="M 88.5 24 Q 96.1 22.5 95 26 Q 89.3 27 88.5 24 Z " /><path fill="rgb(101,101,101)" stroke="rgb(101,101,101)" stroke-width="1" opacity="1" d="M 98.5 25 L 97.5 27 L 98.5 25 Z " /><path fill="rgb(101,101,101)" stroke="rgb(101,101,101)" stroke-width="1" opacity="1" d="M 100.5 26 L 101.5 28 L 102.5 27 L 107 31.5 L 106.5 33 L 109 34.5 L 107.5 35 Q 103.8 33 105.5 31 Q 103.3 31.8 104 29.5 L 100 27.5 L 100.5 26 Z " /><path fill="rgb(101,101,101)" stroke="rgb(101,101,101)" stroke-width="1" opacity="1" d="M 24.5 27 L 25.5 35 L 28 34 L 33.5 27 L 34 29.5 L 32.5 31 Q 30.8 28.3 29 32.5 L 27.5 35 Q 25.3 34.3 26 36.5 L 24 35.5 L 24.5 27 Z " /><path fill="rgb(101,101,101)" stroke="rgb(101,101,101)" stroke-width="1" opacity="1" d="M 81.5 27 L 80.5 29 L 79 28.5 L 81.5 27 Z " /><path fill="rgb(101,101,101)" stroke="rgb(101,101,101)" stroke-width="1" opacity="1" d="M 77.5 29 L 79 31.5 L 78 31.5 L 77.5 29 Z " /><path fill="rgb(101,101,101)" stroke="rgb(101,101,101)" stroke-width="1" opacity="1" d="M 101.5 32 L 102 34.5 L 101 34.5 L 101.5 32 Z " /><path fill="rgb(101,101,101)" stroke="rgb(101,101,101)" stroke-width="1" opacity="1" d="M 87.5 33 L 86.5 35 L 87.5 33 Z " /><path fill="rgb(101,101,101)" stroke="rgb(101,101,101)" stroke-width="1" opacity="1" d="M 76.5 36 L 78 39.5 L 77 39.5 L 76.5 36 Z " /><path fill="rgb(101,101,101)" stroke="rgb(101,101,101)" stroke-width="1" opacity="1" d="M 108 37 L 110 37.5 L 108 38.5 L 108 37 Z " /><path fill="rgb(101,101,101)" stroke="rgb(101,101,101)" stroke-width="1" opacity="1" d="M 24.5 38 L 23.5 40 L 24.5 38 Z " /><path fill="rgb(101,101,101)" stroke="rgb(101,101,101)" stroke-width="1" opacity="1" d="M 75.5 39 L 76 44.5 L 75 44.5 L 75.5 39 Z " /><path fill="rgb(101,101,101)" stroke="rgb(101,101,101)" stroke-width="1" opacity="1" d="M 110.5 40 L 111 47.5 L 110 47.5 L 110.5 40 Z " /><path fill="rgb(101,101,101)" stroke="rgb(101,101,101)" stroke-width="1" opacity="1" d="M 20.5 41 L 22 43.5 L 20 42.5 L 20.5 41 Z " /><path fill="rgb(101,101,101)" stroke="rgb(101,101,101)" stroke-width="1" opacity="1" d="M 19.5 44 L 20.5 46 Q 17.7 46.7 19.5 44 Z " /><path fill="rgb(101,101,101)" stroke="rgb(101,101,101)" stroke-width="1" opacity="1" d="M 58.5 45 L 59 47.5 L 58 47.5 L 58.5 45 Z " /><path fill="rgb(101,101,101)" stroke="rgb(101,101,101)" stroke-width="1" opacity="1" d="M 108.5 45 L 109 46.5 L 107 47.5 L 108.5 45 Z " /><path fill="rgb(101,101,101)" stroke="rgb(101,101,101)" stroke-width="1" opacity="1" d="M 15.5 47 L 14.5 49 L 15.5 47 Z " /><path fill="rgb(101,101,101)" stroke="rgb(101,101,101)" stroke-width="1" opacity="1" d="M 18.5 47 L 19.5 49 L 18.5 47 Z " /><path fill="rgb(101,101,101)" stroke="rgb(101,101,101)" stroke-width="1" opacity="1" d="M 42.5 48 L 43 53.5 L 42 53.5 L 42.5 48 Z " /><path fill="rgb(101,101,101)" stroke="rgb(101,101,101)" stroke-width="1" opacity="1" d="M 76.5 48 Q 78.8 47.3 78 49.5 L 76.5 48 Z " /><path fill="rgb(101,101,101)" stroke="rgb(101,101,101)" stroke-width="1" opacity="1" d="M 51.5 49 L 52 64 Q 49 65.3 50 61.5 L 51 57.5 L 50 53.5 L 51.5 49 Z " /><path fill="rgb(101,101,101)" stroke="rgb(101,101,101)" stroke-width="1" opacity="1" d="M 105.5 49 L 106 50.5 L 104 51.5 L 105.5 49 Z " /><path fill="rgb(101,101,101)" stroke="rgb(101,101,101)" stroke-width="1" opacity="1" d="M 18.5 52 L 19 64.5 L 18 64.5 L 18.5 52 Z " /><path fill="rgb(101,101,101)" stroke="rgb(101,101,101)" stroke-width="1" opacity="1" d="M 33.5 52 L 34 55.5 L 33 55.5 L 33.5 52 Z " /><path fill="rgb(101,101,101)" stroke="rgb(101,101,101)" stroke-width="1" opacity="1" d="M 91.5 52 L 93.5 55 L 91.5 52 Z " /><path fill="rgb(101,101,101)" stroke="rgb(101,101,101)" stroke-width="1" opacity="1" d="M 85.5 53 L 87.5 56 L 85.5 53 Z " /><path fill="rgb(101,101,101)" stroke="rgb(101,101,101)" stroke-width="1" opacity="1" d="M 102.5 53 L 101.5 55 L 102.5 53 Z " /><path fill="rgb(101,101,101)" stroke="rgb(101,101,101)" stroke-width="1" opacity="1" d="M 38.5 54 L 39.5 56 L 38.5 54 Z " /><path fill="rgb(101,101,101)" stroke="rgb(101,101,101)" stroke-width="1" opacity="1" d="M 79.5 54 Q 81.8 53.3 81 55.5 L 84 57 L 84.5 59 L 86 58.5 L 85.5 61 L 79 55.5 L 78.5 60 L 78 55.5 L 79.5 54 Z " /><path fill="rgb(101,101,101)" stroke="rgb(101,101,101)" stroke-width="1" opacity="1" d="M 30.5 55 L 32.5 58 L 34 57.5 L 35 59.5 L 32.5 60 L 30 57.5 L 30.5 55 Z " /><path fill="rgb(101,101,101)" stroke="rgb(101,101,101)" stroke-width="1" opacity="1" d="M 95.5 55 L 100 55.5 L 95.5 56 L 95.5 55 Z " /><path fill="rgb(101,101,101)" stroke="rgb(101,101,101)" stroke-width="1" opacity="1" d="M 55.5 56 L 56.5 58 L 55.5 56 Z " /><path fill="rgb(101,101,101)" stroke="rgb(101,101,101)" stroke-width="1" opacity="1" d="M 66.5 56 L 67 61 L 64 62.5 L 67 63.5 L 56 64 L 56.5 62 Q 57.7 64.3 62.5 63 Q 67.3 60.8 63 58.5 L 63.5 57 L 65.5 60 L 66.5 56 Z " /><path fill="rgb(101,101,101)" stroke="rgb(101,101,101)" stroke-width="1" opacity="1" d="M 71.5 56 L 72 58.5 L 71 58.5 L 71.5 56 Z " /><path fill="rgb(101,101,101)" stroke="rgb(101,101,101)" stroke-width="1" opacity="1" d="M 43.5 57 L 42.5 59 L 43.5 57 Z " /><path fill="rgb(101,101,101)" stroke="rgb(101,101,101)" stroke-width="1" opacity="1" d="M 105.5 57 L 104.5 59 L 105.5 57 Z " /><path fill="rgb(101,101,101)" stroke="rgb(101,101,101)" stroke-width="1" opacity="1" d="M 37 58 Q 40.3 56.9 39 61 L 42.5 61 L 45 59.5 Q 44.3 62.8 39.5 62 L 38 61.5 L 36.5 65 L 35 64.5 L 37 64 L 37 58 Z " /><path fill="rgb(101,101,101)" stroke="rgb(101,101,101)" stroke-width="1" opacity="1" d="M 13.5 60 L 15.5 60 Q 18.9 59.1 17 64.5 L 16 64.5 L 15.5 61 Q 13.7 63.5 13.5 60 Z " /><path fill="rgb(101,101,101)" stroke="rgb(101,101,101)" stroke-width="1" opacity="1" d="M 72.5 60 L 73 62.5 L 72 62.5 L 72.5 60 Z " /><path fill="rgb(101,101,101)" stroke="rgb(101,101,101)" stroke-width="1" opacity="1" d="M 101.5 60 L 102.5 62 Q 99.7 62.7 101.5 60 Z " /><path fill="rgb(101,101,101)" stroke="rgb(101,101,101)" stroke-width="1" opacity="1" d="M 69.5 63 L 68.5 65 L 69.5 63 Z " /><path fill="rgb(101,101,101)" stroke="rgb(101,101,101)" stroke-width="1" opacity="1" d="M 106.5 63 L 105.5 65 L 104 64.5 L 106.5 63 Z " /><path fill="rgb(101,101,101)" stroke="rgb(101,101,101)" stroke-width="1" opacity="1" d="M 26.5 64 Q 29.1 63.2 28 66.5 L 27 66.5 L 26.5 64 Z " /><path fill="rgb(101,101,101)" stroke="rgb(101,101,101)" stroke-width="1" opacity="1" d="M 108.5 64 L 111 64.5 Q 108.9 67.8 108.5 64 Z " /><path fill="rgb(101,101,101)" stroke="rgb(101,101,101)" stroke-width="1" opacity="1" d="M 90.5 65 L 91 67 L 93 67.5 L 89.5 70 L 88 68.5 L 88.5 66 L 90 66.5 L 90.5 65 Z " /><path fill="rgb(101,101,101)" stroke="rgb(101,101,101)" stroke-width="1" opacity="1" d="M 114.5 65 Q 117.1 64.3 116 67 L 113 66.5 L 114.5 65 Z " /><path fill="rgb(101,101,101)" stroke="rgb(101,101,101)" stroke-width="1" opacity="1" d="M 10 66 L 12 66.5 L 8.5 71 L 8 69.5 L 10 66 Z " /><path fill="rgb(101,101,101)" stroke="rgb(101,101,101)" stroke-width="1" opacity="1" d="M 50.5 66 L 51.5 68 L 50.5 66 Z " /><path fill="rgb(101,101,101)" stroke="rgb(101,101,101)" stroke-width="1" opacity="1" d="M 97.5 66 L 99.5 69 L 97.5 66 Z " /><path fill="rgb(101,101,101)" stroke="rgb(101,101,101)" stroke-width="1" opacity="1" d="M 38.5 67 L 42 68 L 41.5 71 L 39.5 68 L 38.5 67 Z " /><path fill="rgb(101,101,101)" stroke="rgb(101,101,101)" stroke-width="1" opacity="1" d="M 74.5 67 L 76.5 71 L 77.5 69 L 78 72 Q 75 70.8 76 74.5 L 76 76.5 L 75 81 L 73 81.5 Q 75.3 82.8 72.5 84 Q 70.3 84.8 71 82.5 Q 76.6 80.1 75 70.5 L 74.5 67 Z " /><path fill="rgb(101,101,101)" stroke="rgb(101,101,101)" stroke-width="1" opacity="1" d="M 116.5 68 L 115.5 70 L 114 69.5 L 116.5 68 Z " /><path fill="rgb(101,101,101)" stroke="rgb(101,101,101)" stroke-width="1" opacity="1" d="M 92.5 69 L 94 71.5 L 91 72 L 87.5 79 L 87.5 76 Q 89.8 76.8 89 74.5 L 92.5 69 Z " /><path fill="rgb(101,101,101)" stroke="rgb(101,101,101)" stroke-width="1" opacity="1" d="M 61.5 70 Q 66.3 69.3 68 71.5 L 67 74.5 L 67.5 76 Q 65 74.8 66 71 Q 60.8 70 58.5 73 L 58 71 L 61.5 70 Z " /><path fill="rgb(101,101,101)" stroke="rgb(101,101,101)" stroke-width="1" opacity="1" d="M 100.5 70 L 103.5 74 L 100.5 70 Z " /><path fill="rgb(101,101,101)" stroke="rgb(101,101,101)" stroke-width="1" opacity="1" d="M 104.5 70 L 105.5 72 L 104.5 70 Z " /><path fill="rgb(101,101,101)" stroke="rgb(101,101,101)" stroke-width="1" opacity="1" d="M 22.5 71 Q 25.5 72.5 22.5 74 Q 19.5 72.5 22.5 71 Z " /><path fill="rgb(101,101,101)" stroke="rgb(101,101,101)" stroke-width="1" opacity="1" d="M 7.5 72 L 8 75 L 13.5 78 L 15 77.5 Q 13.8 80.3 12.5 78 L 7 74.5 L 7.5 72 Z " /><path fill="rgb(101,101,101)" stroke="rgb(101,101,101)" stroke-width="1" opacity="1" d="M 15.5 72 L 18 72.5 Q 15.9 75.8 15.5 72 Z " /><path fill="rgb(101,101,101)" stroke="rgb(101,101,101)" stroke-width="1" opacity="1" d="M 41.5 72 L 46 73.5 L 42.5 74 L 41.5 72 Z " /><path fill="rgb(101,101,101)" stroke="rgb(101,101,101)" stroke-width="1" opacity="1" d="M 84.5 72 L 86 74.5 L 84 73.5 L 84.5 72 Z " /><path fill="rgb(101,101,101)" stroke="rgb(101,101,101)" stroke-width="1" opacity="1" d="M 29.5 73 L 32 76.5 L 32 78.5 L 31.5 83 Q 32 77.5 28.5 76 L 27 75.5 L 29.5 73 Z " /><path fill="rgb(101,101,101)" stroke="rgb(101,101,101)" stroke-width="1" opacity="1" d="M 107 73 L 109 73.5 L 107 74.5 L 107 73 Z " /><path fill="rgb(101,101,101)" stroke="rgb(101,101,101)" stroke-width="1" opacity="1" d="M 110 73 L 112 73.5 L 110 74.5 L 110 73 Z " /><path fill="rgb(101,101,101)" stroke="rgb(101,101,101)" stroke-width="1" opacity="1" d="M 14.5 74 L 15.5 76 L 14.5 74 Z " /><path fill="rgb(101,101,101)" stroke="rgb(101,101,101)" stroke-width="1" opacity="1" d="M 32.5 74 L 39 74.5 L 33.5 76 L 32.5 74 Z " /><path fill="rgb(101,101,101)" stroke="rgb(101,101,101)" stroke-width="1" opacity="1" d="M 55.5 74 L 56 75.5 L 55.5 77 L 57 77.5 L 53.5 79 L 53 77.5 L 55.5 74 Z " /><path fill="rgb(101,101,101)" stroke="rgb(101,101,101)" stroke-width="1" opacity="1" d="M 70.5 74 L 70.5 76 L 72 76.5 L 70.5 77 Q 67.5 75.5 70.5 74 Z " /><path fill="rgb(101,101,101)" stroke="rgb(101,101,101)" stroke-width="1" opacity="1" d="M 42.5 76 L 43 78.5 L 42 78.5 L 42.5 76 Z " /><path fill="rgb(101,101,101)" stroke="rgb(101,101,101)" stroke-width="1" opacity="1" d="M 91.5 76 L 93 76.5 L 90.5 78 L 91.5 76 Z " /><path fill="rgb(101,101,101)" stroke="rgb(101,101,101)" stroke-width="1" opacity="1" d="M 109.5 76 L 111 78.5 L 110 78.5 L 109.5 76 Z " /><path fill="rgb(101,101,101)" stroke="rgb(101,101,101)" stroke-width="1" opacity="1" d="M 27.5 77 L 28 78.5 Q 25.5 80 29 81.5 L 28.5 83 L 26.5 80 L 25.5 82 L 25 80.5 L 25.5 78 L 27 78.5 L 27.5 77 Z " /><path fill="rgb(101,101,101)" stroke="rgb(101,101,101)" stroke-width="1" opacity="1" d="M 64 77 L 67 77.5 L 64.5 79 L 64 77 Z " /><path fill="rgb(101,101,101)" stroke="rgb(101,101,101)" stroke-width="1" opacity="1" d="M 58 78 L 60 78.5 L 60 82.5 L 59.5 94 L 58 78 Z " /><path fill="rgb(101,101,101)" stroke="rgb(101,101,101)" stroke-width="1" opacity="1" d="M 21.5 79 L 24 79.5 L 21.5 80 L 21.5 79 Z " /><path fill="rgb(101,101,101)" stroke="rgb(101,101,101)" stroke-width="1" opacity="1" d="M 98.5 79 L 98.5 81 L 100 81.5 L 98.5 82 Q 95.5 80.5 98.5 79 Z " /><path fill="rgb(101,101,101)" stroke="rgb(101,101,101)" stroke-width="1" opacity="1" d="M 69.5 80 L 69 81.5 L 68.5 83 L 68 81.5 L 69.5 80 Z " /><path fill="rgb(101,101,101)" stroke="rgb(101,101,101)" stroke-width="1" opacity="1" d="M 40 82 L 42 82.5 L 40 83.5 L 40 82 Z " /><path fill="rgb(101,101,101)" stroke="rgb(101,101,101)" stroke-width="1" opacity="1" d="M 106.5 82 L 109 82.5 Q 106.9 85.8 106.5 82 Z " /><path fill="rgb(101,101,101)" stroke="rgb(101,101,101)" stroke-width="1" opacity="1" d="M 25.5 83 L 27 86.5 L 25 87 L 25.5 83 Z " /><path fill="rgb(101,101,101)" stroke="rgb(101,101,101)" stroke-width="1" opacity="1" d="M 88.5 83 L 86 86.5 L 86.5 88 L 85 86.5 L 88.5 83 Z " /><path fill="rgb(101,101,101)" stroke="rgb(101,101,101)" stroke-width="1" opacity="1" d="M 75 85 L 77 85.5 L 75 86.5 L 75 85 Z " /><path fill="rgb(101,101,101)" stroke="rgb(101,101,101)" stroke-width="1" opacity="1" d="M 106.5 85 L 105.5 87 L 106.5 85 Z " /><path fill="rgb(101,101,101)" stroke="rgb(101,101,101)" stroke-width="1" opacity="1" d="M 30.5 86 L 33 87.5 L 29.5 88 L 30.5 86 Z " /><path fill="rgb(101,101,101)" stroke="rgb(101,101,101)" stroke-width="1" opacity="1" d="M 22.5 87 L 23.5 89 L 20 88.5 L 22.5 87 Z " /><path fill="rgb(101,101,101)" stroke="rgb(101,101,101)" stroke-width="1" opacity="1" d="M 41.5 87 L 42.5 89 Q 39.7 89.7 41.5 87 Z " /><path fill="rgb(101,101,101)" stroke="rgb(101,101,101)" stroke-width="1" opacity="1" d="M 69.5 87 L 72 87.5 Q 72.8 89.8 70.5 89 L 69.5 87 Z " /><path fill="rgb(101,101,101)" stroke="rgb(101,101,101)" stroke-width="1" opacity="1" d="M 78.5 87 L 79 88.5 L 77 89.5 L 78.5 87 Z " /><path fill="rgb(101,101,101)" stroke="rgb(101,101,101)" stroke-width="1" opacity="1" d="M 18.5 88 L 17.5 90 L 15 89.5 L 18.5 88 Z " /><path fill="rgb(101,101,101)" stroke="rgb(101,101,101)" stroke-width="1" opacity="1" d="M 45.5 88 Q 47.3 90.8 53.5 89 L 55 90.5 L 51.5 92 L 51.5 91 L 53 90.5 L 46.5 90 L 45.5 88 Z " /><path fill="rgb(101,101,101)" stroke="rgb(101,101,101)" stroke-width="1" opacity="1" d="M 12.5 90 L 14 92.5 L 13 92.5 L 12.5 90 Z " /><path fill="rgb(101,101,101)" stroke="rgb(101,101,101)" stroke-width="1" opacity="1" d="M 75.5 90 L 75.5 93 Q 72.5 91.5 75.5 90 Z " /><path fill="rgb(101,101,101)" stroke="rgb(101,101,101)" stroke-width="1" opacity="1" d="M 54.5 92 Q 56.8 91.3 56 93.5 L 54.5 92 Z " /><path fill="rgb(101,101,101)" stroke="rgb(101,101,101)" stroke-width="1" opacity="1" d="M 71.5 92 L 74 93.5 L 72.5 93 L 71.5 92 Z " /><path fill="rgb(101,101,101)" stroke="rgb(101,101,101)" stroke-width="1" opacity="1" d="M 14.5 94 L 15.5 96 Q 12.7 96.7 14.5 94 Z " /><path fill="rgb(101,101,101)" stroke="rgb(101,101,101)" stroke-width="1" opacity="1" d="M 67.5 94 Q 72 96 68.5 98 L 67.5 94 Z " /><path fill="rgb(101,101,101)" stroke="rgb(101,101,101)" stroke-width="1" opacity="1" d="M 59.5 95 Q 61.8 94.3 61 96.5 L 59.5 95 Z " /><path fill="rgb(101,101,101)" stroke="rgb(101,101,101)" stroke-width="1" opacity="1" d="M 63.5 95 L 66 95.5 L 63.5 96 L 63.5 95 Z " /><path fill="rgb(101,101,101)" stroke="rgb(101,101,101)" stroke-width="1" opacity="1" d="M 15.5 97 Q 17.8 96.3 17 98.5 L 15.5 97 Z " /><path fill="rgb(101,101,101)" stroke="rgb(101,101,101)" stroke-width="1" opacity="1" d="M 65.5 98 L 67 100.5 L 65 99.5 L 65.5 98 Z " /><path fill="rgb(101,101,101)" stroke="rgb(101,101,101)" stroke-width="1" opacity="1" d="M 74.5 101 L 75 102.5 L 71.5 107 L 69.5 108 L 70.5 106 L 73 104.5 L 74.5 101 Z " /><path fill="rgb(101,101,101)" stroke="rgb(101,101,101)" stroke-width="1" opacity="1" d="M 65.5 105 L 66 107 L 68 107.5 L 66.5 108 Q 65.3 105.8 64 108.5 Q 64.8 110.8 62.5 110 L 62.5 107 Q 63.7 109.3 65 106.5 L 65.5 105 Z " /><path fill="rgb(101,101,101)" stroke="rgb(101,101,101)" stroke-width="1" opacity="1" d="M 75.5 105 L 74.5 107 L 75.5 105 Z " /><path fill="rgb(101,101,101)" stroke="rgb(101,101,101)" stroke-width="1" opacity="1" d="M 21.5 106 L 22.5 108 Q 19.7 108.7 21.5 106 Z " /><path fill="rgb(101,101,101)" stroke="rgb(101,101,101)" stroke-width="1" opacity="1" d="M 29.5 106 L 36 106.5 Q 31.8 106.3 30.5 109 L 30.5 107 L 29.5 106 Z " /><path fill="rgb(101,101,101)" stroke="rgb(101,101,101)" stroke-width="1" opacity="1" d="M 25.5 107 L 24.5 109 L 25.5 107 Z " /><path fill="rgb(101,101,101)" stroke="rgb(101,101,101)" stroke-width="1" opacity="1" d="M 41.5 107 L 44 108.5 L 42.5 108 L 41.5 107 Z " /><path fill="rgb(101,101,101)" stroke="rgb(101,101,101)" stroke-width="1" opacity="1" d="M 76.5 107 L 76 108.5 L 75.5 111 L 75 108.5 L 76.5 107 Z " /><path fill="rgb(101,101,101)" stroke="rgb(101,101,101)" stroke-width="1" opacity="1" d="M 45.5 108 L 46 110 Q 50.9 109.9 53 113.5 L 51.5 114 L 47.5 111 L 46 111.5 L 45.5 108 Z " /><path fill="rgb(101,101,101)" stroke="rgb(101,101,101)" stroke-width="1" opacity="1" d="M 37.5 109 L 38 111 L 33 110.5 L 37.5 109 Z " /><path fill="rgb(101,101,101)" stroke="rgb(101,101,101)" stroke-width="1" opacity="1" d="M 66.5 109 Q 69.3 110.2 67 111.5 L 67 116 L 75.5 116 L 78 117 L 78.5 114 L 79 118 L 30.5 117 L 29.5 118 Q 27.8 114.9 26 116.5 L 26.5 115 Q 24.3 115.8 25 113.5 L 26.5 114 L 29.5 113 L 28.5 116 L 39.5 116 L 40 113.5 L 41 113.5 Q 39.5 117.9 42.5 117 L 42.5 115 L 49.5 117 L 49.5 115 L 50.5 116 L 66 116 L 66.5 109 Z " /><path fill="rgb(101,101,101)" stroke="rgb(101,101,101)" stroke-width="1" opacity="1" d="M 55.5 111 L 56.5 113 L 55 112.5 L 54.5 114 L 54 112.5 L 55.5 111 Z " /><path fill="rgb(194,194,194)" stroke="rgb(194,194,194)" stroke-width="1" opacity="1" d="M 26.5 20 L 34 20.5 L 26.5 21 L 26.5 20 Z " /><path fill="rgb(194,194,194)" stroke="rgb(194,194,194)" stroke-width="1" opacity="1" d="M 47.5 21 L 50 21.5 L 47.5 22 L 47.5 21 Z " /><path fill="rgb(194,194,194)" stroke="rgb(194,194,194)" stroke-width="1" opacity="1" d="M 61.5 21 L 64 21.5 L 61.5 22 L 61.5 21 Z " /><path fill="rgb(194,194,194)" stroke="rgb(194,194,194)" stroke-width="1" opacity="1" d="M 25.5 22 L 26 27.5 L 25 27.5 L 25.5 22 Z " /><path fill="rgb(194,194,194)" stroke="rgb(194,194,194)" stroke-width="1" opacity="1" d="M 52.5 22 L 58 22.5 L 52.5 23 L 52.5 22 Z " /><path fill="rgb(194,194,194)" stroke="rgb(194,194,194)" stroke-width="1" opacity="1" d="M 18.5 24 L 17.5 26 L 18.5 24 Z " /><path fill="rgb(194,194,194)" stroke="rgb(194,194,194)" stroke-width="1" opacity="1" d="M 36.5 24 L 34.5 27 L 36.5 24 Z " /><path fill="rgb(194,194,194)" stroke="rgb(194,194,194)" stroke-width="1" opacity="1" d="M 71.5 24 L 73 24.5 L 70.5 26 L 71.5 24 Z " /><path fill="rgb(194,194,194)" stroke="rgb(194,194,194)" stroke-width="1" opacity="1" d="M 95.5 24 L 98 24.5 L 95.5 25 L 95.5 24 Z " /><path fill="rgb(194,194,194)" stroke="rgb(194,194,194)" stroke-width="1" opacity="1" d="M 74.5 27 L 75.5 29 L 74.5 27 Z " /><path fill="rgb(194,194,194)" stroke="rgb(194,194,194)" stroke-width="1" opacity="1" d="M 18.5 28 L 17.5 30 L 18.5 28 Z " /><path fill="rgb(194,194,194)" stroke="rgb(194,194,194)" stroke-width="1" opacity="1" d="M 83.5 28 L 81.5 31 L 83.5 28 Z " /><path fill="rgb(194,194,194)" stroke="rgb(194,194,194)" stroke-width="1" opacity="1" d="M 102.5 29 L 104.5 32 L 102.5 29 Z " /><path fill="rgb(194,194,194)" stroke="rgb(194,194,194)" stroke-width="1" opacity="1" d="M 100.5 30 L 101.5 32 L 100.5 30 Z " /><path fill="rgb(194,194,194)" stroke="rgb(194,194,194)" stroke-width="1" opacity="1" d="M 20.5 31 L 19.5 33 L 20.5 31 Z " /><path fill="rgb(194,194,194)" stroke="rgb(194,194,194)" stroke-width="1" opacity="1" d="M 27.5 33 L 28.5 35 L 27.5 33 Z " /><path fill="rgb(194,194,194)" stroke="rgb(194,194,194)" stroke-width="1" opacity="1" d="M 12.5 34 L 13 45.5 L 12 45.5 L 12.5 34 Z " /><path fill="rgb(194,194,194)" stroke="rgb(194,194,194)" stroke-width="1" opacity="1" d="M 15.5 36 L 18 37.5 L 16.5 37 L 15.5 36 Z " /><path fill="rgb(194,194,194)" stroke="rgb(194,194,194)" stroke-width="1" opacity="1" d="M 26.5 36 L 25.5 38 L 26.5 36 Z " /><path fill="rgb(194,194,194)" stroke="rgb(194,194,194)" stroke-width="1" opacity="1" d="M 92.5 36 L 90.5 39 L 92.5 36 Z " /><path fill="rgb(194,194,194)" stroke="rgb(194,194,194)" stroke-width="1" opacity="1" d="M 14.5 40 L 15 42.5 L 14 42.5 L 14.5 40 Z " /><path fill="rgb(194,194,194)" stroke="rgb(194,194,194)" stroke-width="1" opacity="1" d="M 23.5 40 L 23 41.5 L 22.5 43 L 22 41.5 L 23.5 40 Z " /><path fill="rgb(194,194,194)" stroke="rgb(194,194,194)" stroke-width="1" opacity="1" d="M 34.5 42 L 35.5 44 L 34 43.5 L 33.5 45 L 33 43.5 L 34.5 42 Z " /><path fill="rgb(194,194,194)" stroke="rgb(194,194,194)" stroke-width="1" opacity="1" d="M 41.5 45 L 43 47.5 L 42 47.5 L 41.5 45 Z " /><path fill="rgb(194,194,194)" stroke="rgb(194,194,194)" stroke-width="1" opacity="1" d="M 60.5 45 L 61 47.5 L 60 47.5 L 60.5 45 Z " /><path fill="rgb(194,194,194)" stroke="rgb(194,194,194)" stroke-width="1" opacity="1" d="M 65.5 45 L 67 51.5 L 65.5 56 L 65.5 45 Z " /><path fill="rgb(194,194,194)" stroke="rgb(194,194,194)" stroke-width="1" opacity="1" d="M 34.5 46 L 35 58.5 L 34 58.5 L 34.5 46 Z " /><path fill="rgb(194,194,194)" stroke="rgb(194,194,194)" stroke-width="1" opacity="1" d="M 19.5 49 L 20 51.5 L 19 51.5 L 19.5 49 Z " /><path fill="rgb(194,194,194)" stroke="rgb(194,194,194)" stroke-width="1" opacity="1" d="M 15.5 50 L 16.5 52 L 15.5 50 Z " /><path fill="rgb(194,194,194)" stroke="rgb(194,194,194)" stroke-width="1" opacity="1" d="M 61.5 50 L 62 52.5 L 61 52.5 L 61.5 50 Z " /><path fill="rgb(194,194,194)" stroke="rgb(194,194,194)" stroke-width="1" opacity="1" d="M 77.5 52 L 79 54.5 L 78 59.5 L 79 60.5 L 79 68.5 L 78 68.5 Q 75.6 61.7 77.5 52 Z " /><path fill="rgb(194,194,194)" stroke="rgb(194,194,194)" stroke-width="1" opacity="1" d="M 22.5 54 L 23 66.5 L 21.5 72 L 21 58.5 L 22.5 54 Z " /><path fill="rgb(194,194,194)" stroke="rgb(194,194,194)" stroke-width="1" opacity="1" d="M 43.5 54 L 44 56.5 L 43 56.5 L 43.5 54 Z " /><path fill="rgb(194,194,194)" stroke="rgb(194,194,194)" stroke-width="1" opacity="1" d="M 81.5 55 Q 84.5 56.5 81.5 58 L 81.5 55 Z " /><path fill="rgb(194,194,194)" stroke="rgb(194,194,194)" stroke-width="1" opacity="1" d="M 86.5 55 L 87.5 57 L 86.5 55 Z " /><path fill="rgb(194,194,194)" stroke="rgb(194,194,194)" stroke-width="1" opacity="1" d="M 54.5 57 L 56 59.5 L 54 58.5 L 54.5 57 Z " /><path fill="rgb(194,194,194)" stroke="rgb(194,194,194)" stroke-width="1" opacity="1" d="M 72.5 57 L 73 59.5 L 71.5 62 Q 68.3 60.3 72 58.5 L 72.5 57 Z " /><path fill="rgb(194,194,194)" stroke="rgb(194,194,194)" stroke-width="1" opacity="1" d="M 62.5 59 L 63.5 61 L 62.5 59 Z " /><path fill="rgb(194,194,194)" stroke="rgb(194,194,194)" stroke-width="1" opacity="1" d="M 93.5 59 L 97 59.5 Q 96 62 91.5 61 L 91.5 60 L 93.5 59 Z " /><path fill="rgb(194,194,194)" stroke="rgb(194,194,194)" stroke-width="1" opacity="1" d="M 40.5 62 L 43 62.5 L 40.5 63 L 40.5 62 Z " /><path fill="rgb(194,194,194)" stroke="rgb(194,194,194)" stroke-width="1" opacity="1" d="M 44.5 62 L 46.5 62 L 49.5 65 L 51 64.5 Q 51.8 66.8 49.5 66 L 50.5 68 L 52 68.5 L 50.5 69 L 44.5 62 Z " /><path fill="rgb(194,194,194)" stroke="rgb(194,194,194)" stroke-width="1" opacity="1" d="M 89.5 62 L 92 63.5 L 90.5 63 L 89.5 62 Z " /><path fill="rgb(194,194,194)" stroke="rgb(194,194,194)" stroke-width="1" opacity="1" d="M 70.5 64 L 72.5 67 L 70.5 64 Z " /><path fill="rgb(194,194,194)" stroke="rgb(194,194,194)" stroke-width="1" opacity="1" d="M 102 64 L 104 64.5 L 102 65.5 L 102 64 Z " /><path fill="rgb(194,194,194)" stroke="rgb(194,194,194)" stroke-width="1" opacity="1" d="M 16.5 65 L 17 68.5 L 16 68.5 L 16.5 65 Z " /><path fill="rgb(194,194,194)" stroke="rgb(194,194,194)" stroke-width="1" opacity="1" d="M 19.5 65 L 20 67.5 L 19 67.5 L 19.5 65 Z " /><path fill="rgb(194,194,194)" stroke="rgb(194,194,194)" stroke-width="1" opacity="1" d="M 116.5 65 L 118 67.5 L 117 67.5 L 116.5 65 Z " /><path fill="rgb(194,194,194)" stroke="rgb(194,194,194)" stroke-width="1" opacity="1" d="M 36.5 66 L 35.5 68 L 36.5 66 Z " /><path fill="rgb(194,194,194)" stroke="rgb(194,194,194)" stroke-width="1" opacity="1" d="M 9.5 67 L 10.5 69 L 9.5 67 Z " /><path fill="rgb(194,194,194)" stroke="rgb(194,194,194)" stroke-width="1" opacity="1" d="M 27.5 67 L 28 74.5 L 24.5 81 L 24 78.5 Q 28 75 27.5 67 Z " /><path fill="rgb(194,194,194)" stroke="rgb(194,194,194)" stroke-width="1" opacity="1" d="M 40.5 67 L 39.5 69 L 37 68.5 L 40.5 67 Z " /><path fill="rgb(194,194,194)" stroke="rgb(194,194,194)" stroke-width="1" opacity="1" d="M 115.5 67 L 114.5 69 L 115.5 67 Z " /><path fill="rgb(194,194,194)" stroke="rgb(194,194,194)" stroke-width="1" opacity="1" d="M 33.5 68 L 35 69.5 Q 29.6 72.3 31.5 75 Q 26.5 72.5 31.5 70 Q 32.8 72.3 34 69.5 L 33.5 68 Z " /><path fill="rgb(194,194,194)" stroke="rgb(194,194,194)" stroke-width="1" opacity="1" d="M 42.5 68 L 43.5 70 L 42.5 68 Z " /><path fill="rgb(194,194,194)" stroke="rgb(194,194,194)" stroke-width="1" opacity="1" d="M 75.5 68 L 77 70.5 L 75 70.5 L 74.5 72 L 74 70.5 L 75.5 68 Z " /><path fill="rgb(194,194,194)" stroke="rgb(194,194,194)" stroke-width="1" opacity="1" d="M 98.5 68 L 99.5 70 L 98.5 68 Z " /><path fill="rgb(194,194,194)" stroke="rgb(194,194,194)" stroke-width="1" opacity="1" d="M 60.5 70 L 65.5 71 L 67 70.5 Q 66 73 61.5 72 L 60.5 70 Z " /><path fill="rgb(194,194,194)" stroke="rgb(194,194,194)" stroke-width="1" opacity="1" d="M 89.5 70 L 86.5 74 L 89.5 70 Z " /><path fill="rgb(194,194,194)" stroke="rgb(194,194,194)" stroke-width="1" opacity="1" d="M 113.5 70 L 116 70.5 Q 113.9 73.8 113.5 70 Z " /><path fill="rgb(194,194,194)" stroke="rgb(194,194,194)" stroke-width="1" opacity="1" d="M 68.5 71 L 70.5 74 L 68.5 71 Z " /><path fill="rgb(194,194,194)" stroke="rgb(194,194,194)" stroke-width="1" opacity="1" d="M 56.5 72 Q 59.5 73.5 56.5 75 Q 53.5 73.5 56.5 72 Z " /><path fill="rgb(194,194,194)" stroke="rgb(194,194,194)" stroke-width="1" opacity="1" d="M 92.5 72 L 93 74 L 90.5 75 L 89.5 74 L 86.5 77 Q 84.3 77.8 85 75.5 L 86.5 76 L 92.5 72 Z " /><path fill="rgb(194,194,194)" stroke="rgb(194,194,194)" stroke-width="1" opacity="1" d="M 6.5 73 L 7.5 75 L 9 74.5 Q 7.5 77.5 6 74.5 L 6.5 73 Z " /><path fill="rgb(194,194,194)" stroke="rgb(194,194,194)" stroke-width="1" opacity="1" d="M 113.5 73 L 112.5 75 L 113.5 73 Z " /><path fill="rgb(194,194,194)" stroke="rgb(194,194,194)" stroke-width="1" opacity="1" d="M 16.5 74 L 17 76.5 L 16 76.5 L 16.5 74 Z " /><path fill="rgb(194,194,194)" stroke="rgb(194,194,194)" stroke-width="1" opacity="1" d="M 46.5 74 L 47 78.5 L 46 78.5 L 45 76.5 L 46.5 74 Z " /><path fill="rgb(194,194,194)" stroke="rgb(194,194,194)" stroke-width="1" opacity="1" d="M 94.5 74 L 93.5 76 L 94.5 74 Z " /><path fill="rgb(194,194,194)" stroke="rgb(194,194,194)" stroke-width="1" opacity="1" d="M 104.5 74 L 105.5 76 L 104.5 74 Z " /><path fill="rgb(194,194,194)" stroke="rgb(194,194,194)" stroke-width="1" opacity="1" d="M 41.5 75 L 42 77.5 L 41.5 79 L 40 76.5 L 41.5 75 Z " /><path fill="rgb(194,194,194)" stroke="rgb(194,194,194)" stroke-width="1" opacity="1" d="M 32.5 76 L 31.5 78 L 32.5 76 Z " /><path fill="rgb(194,194,194)" stroke="rgb(194,194,194)" stroke-width="1" opacity="1" d="M 57.5 76 L 64 76.5 L 57.5 77 L 57.5 76 Z " /><path fill="rgb(194,194,194)" stroke="rgb(194,194,194)" stroke-width="1" opacity="1" d="M 72.5 77 L 74 79.5 L 72 80.5 L 72.5 77 Z " /><path fill="rgb(194,194,194)" stroke="rgb(194,194,194)" stroke-width="1" opacity="1" d="M 74.5 77 L 76 79.5 L 75 79.5 L 74.5 77 Z " /><path fill="rgb(194,194,194)" stroke="rgb(194,194,194)" stroke-width="1" opacity="1" d="M 44.5 78 L 43.5 80 L 44.5 78 Z " /><path fill="rgb(194,194,194)" stroke="rgb(194,194,194)" stroke-width="1" opacity="1" d="M 27.5 79 Q 29.8 78.3 29 80.5 L 27.5 79 Z " /><path fill="rgb(194,194,194)" stroke="rgb(194,194,194)" stroke-width="1" opacity="1" d="M 80.5 80 L 83 80.5 L 79.5 84 Q 78.3 81.7 77 84.5 L 78.5 87 L 76 86.5 L 76 84.5 L 80.5 80 Z " /><path fill="rgb(194,194,194)" stroke="rgb(194,194,194)" stroke-width="1" opacity="1" d="M 26.5 81 L 28.5 84 L 26.5 82 L 24 83.5 L 26.5 81 Z " /><path fill="rgb(194,194,194)" stroke="rgb(194,194,194)" stroke-width="1" opacity="1" d="M 98.5 82 L 101 82.5 L 100 83.5 L 101.5 86 L 98.5 82 Z " /><path fill="rgb(194,194,194)" stroke="rgb(194,194,194)" stroke-width="1" opacity="1" d="M 31.5 83 L 32 86 L 37 86.5 L 32.5 87 L 30.5 86 L 27.5 87 L 27.5 86 L 31 84.5 L 31.5 83 Z " /><path fill="rgb(194,194,194)" stroke="rgb(194,194,194)" stroke-width="1" opacity="1" d="M 58.5 83 L 59 93.5 L 58 93.5 Q 59.3 88.8 57 87.5 L 58.5 83 Z " /><path fill="rgb(194,194,194)" stroke="rgb(194,194,194)" stroke-width="1" opacity="1" d="M 68 83 L 71.5 85 L 73 84.5 L 70.5 88 L 70 86.5 L 70.5 85 Q 67.9 84.2 69 87.5 L 68 89.5 L 68.5 91 L 67 88.5 L 68 83 Z " /><path fill="rgb(194,194,194)" stroke="rgb(194,194,194)" stroke-width="1" opacity="1" d="M 40.5 84 L 41 87 Q 38.3 88.1 39 85.5 L 40.5 84 Z " /><path fill="rgb(194,194,194)" stroke="rgb(194,194,194)" stroke-width="1" opacity="1" d="M 42.5 86 L 43.5 88 L 42.5 86 Z " /><path fill="rgb(194,194,194)" stroke="rgb(194,194,194)" stroke-width="1" opacity="1" d="M 88.5 86 L 87.5 88 L 88.5 86 Z " /><path fill="rgb(194,194,194)" stroke="rgb(194,194,194)" stroke-width="1" opacity="1" d="M 16.5 88 L 21 89.5 L 18.5 90 L 16.5 88 Z " /><path fill="rgb(194,194,194)" stroke="rgb(194,194,194)" stroke-width="1" opacity="1" d="M 46.5 88 L 45.5 90 L 43 89.5 L 46.5 88 Z " /><path fill="rgb(194,194,194)" stroke="rgb(194,194,194)" stroke-width="1" opacity="1" d="M 14.5 89 L 15.5 91 L 14.5 89 Z " /><path fill="rgb(194,194,194)" stroke="rgb(194,194,194)" stroke-width="1" opacity="1" d="M 54.5 91 L 53.5 93 L 54.5 91 Z " /><path fill="rgb(194,194,194)" stroke="rgb(194,194,194)" stroke-width="1" opacity="1" d="M 14.5 93 L 13.5 95 L 14.5 93 Z " /><path fill="rgb(194,194,194)" stroke="rgb(194,194,194)" stroke-width="1" opacity="1" d="M 60.5 94 L 63 95.5 L 61.5 96 L 60.5 94 Z " /><path fill="rgb(194,194,194)" stroke="rgb(194,194,194)" stroke-width="1" opacity="1" d="M 65.5 97 L 68 97.5 L 65.5 98 L 65.5 97 Z " /><path fill="rgb(194,194,194)" stroke="rgb(194,194,194)" stroke-width="1" opacity="1" d="M 71.5 97 L 73.5 100 L 71.5 97 Z " /><path fill="rgb(194,194,194)" stroke="rgb(194,194,194)" stroke-width="1" opacity="1" d="M 17.5 98 L 16.5 100 L 17.5 98 Z " /><path fill="rgb(194,194,194)" stroke="rgb(194,194,194)" stroke-width="1" opacity="1" d="M 68.5 100 L 70.5 103 L 69 102.5 L 70 104.5 L 68 103.5 L 67 101.5 L 68.5 100 Z " /><path fill="rgb(194,194,194)" stroke="rgb(194,194,194)" stroke-width="1" opacity="1" d="M 17.5 101 L 20 101.5 L 18.5 104 L 17.5 101 Z " /><path fill="rgb(194,194,194)" stroke="rgb(194,194,194)" stroke-width="1" opacity="1" d="M 21.5 105 L 20.5 107 L 21.5 105 Z " /><path fill="rgb(194,194,194)" stroke="rgb(194,194,194)" stroke-width="1" opacity="1" d="M 26.5 106 L 30 107.5 L 28.5 108 L 26.5 106 Z " /><path fill="rgb(194,194,194)" stroke="rgb(194,194,194)" stroke-width="1" opacity="1" d="M 36.5 106 L 41 106.5 L 38 107 L 39 110.5 L 38 110.5 L 36.5 108 Q 31.1 106.1 32 109.5 L 33.5 112 L 31 110.5 L 30 112.5 L 30.5 114 Q 27.8 112.8 30 111.5 Q 29.5 107.5 32.5 107 L 36.5 106 Z " /><path fill="rgb(194,194,194)" stroke="rgb(194,194,194)" stroke-width="1" opacity="1" d="M 66.5 106 L 65.5 108 L 66.5 106 Z " /><path fill="rgb(194,194,194)" stroke="rgb(194,194,194)" stroke-width="1" opacity="1" d="M 68.5 106 L 71 107.5 L 69.5 107 L 68.5 106 Z " /><path fill="rgb(194,194,194)" stroke="rgb(194,194,194)" stroke-width="1" opacity="1" d="M 72.5 106 L 75 107.5 L 73.5 107 L 72.5 106 Z " /><path fill="rgb(194,194,194)" stroke="rgb(194,194,194)" stroke-width="1" opacity="1" d="M 24.5 107 L 25.5 109 L 24.5 107 Z " /><path fill="rgb(194,194,194)" stroke="rgb(194,194,194)" stroke-width="1" opacity="1" d="M 43.5 107 L 42.5 109 L 41 108.5 L 43.5 107 Z " /><path fill="rgb(194,194,194)" stroke="rgb(194,194,194)" stroke-width="1" opacity="1" d="M 24.5 110 L 23.5 112 L 24.5 110 Z " /><path fill="rgb(194,194,194)" stroke="rgb(194,194,194)" stroke-width="1" opacity="1" d="M 45.5 111 L 47 112.5 L 43.5 116 L 41 115.5 Q 40.3 113.3 42.5 114 L 45.5 111 Z " /><path fill="rgb(194,194,194)" stroke="rgb(194,194,194)" stroke-width="1" opacity="1" d="M 67.5 111 L 68 115.5 L 67 115.5 L 67.5 111 Z " /><path fill="rgb(194,194,194)" stroke="rgb(194,194,194)" stroke-width="1" opacity="1" d="M 75.5 111 L 76 115.5 L 75 115.5 L 75.5 111 Z " /><path fill="rgb(194,194,194)" stroke="rgb(194,194,194)" stroke-width="1" opacity="1" d="M 25.5 112 L 24.5 114 L 25.5 112 Z " /><path fill="rgb(194,194,194)" stroke="rgb(194,194,194)" stroke-width="1" opacity="1" d="M 50.5 114 L 51.5 116 L 50.5 114 Z " /><path fill="rgb(194,194,194)" stroke="rgb(194,194,194)" stroke-width="1" opacity="1" d="M 30.5 117 L 41 117.5 L 30.5 118 L 30.5 117 Z " /><path fill="rgb(254,254,254)" stroke="rgb(254,254,254)" stroke-width="1" opacity="1" d="M 6.5 0 Q 7.8 2.3 12.5 1 L 15.5 0 L 15.5 1 L 11.5 3 L 8.5 2 L 6.5 0 Z " /><path fill="rgb(254,254,254)" stroke="rgb(254,254,254)" stroke-width="1" opacity="1" d="M 23.5 0 L 24.5 2 L 25 0 L 27 0.5 L 26 2.5 Q 27.2 5.8 31 5 L 32 2.5 L 31 0.5 L 32 0.5 L 33 3.5 L 29 6.5 L 32.5 7 L 35 2.5 L 34 0.5 L 36 1.5 Q 36.6 6.6 33.5 8 L 31.5 9 L 29 8 Q 30.3 13.5 26.5 15 L 21.5 16 L 15 10.5 Q 14 4 17.5 2 L 20.5 1 L 23 2 L 23.5 0 Z M 19 3 L 16 6 L 17 12 L 22 15 Q 26 15 28 12 L 27 8 L 25 13 Q 19 14 18 10 Q 17 5 20 4 Q 25 3 27 7 L 27 6 Q 26 2 19 3 Z M 21 5 L 19 7 Q 18 11 22 12 L 24 11 Q 26 12 25 8 Q 25 5 21 5 Z " /><path fill="rgb(254,254,254)" stroke="rgb(254,254,254)" stroke-width="1" opacity="1" d="M 51.5 0 L 53.5 1 L 55.5 0 L 55 1.5 Q 55.7 4.5 52 3 L 51.5 0 Z " /><path fill="rgb(254,254,254)" stroke="rgb(254,254,254)" stroke-width="1" opacity="1" d="M 63.5 0 Q 68.3 -1.3 67 2 Q 63.2 2.8 63.5 0 Z " /><path fill="rgb(254,254,254)" stroke="rgb(254,254,254)" stroke-width="1" opacity="1" d="M 40.5 7 L 44 9.5 L 49 15.5 L 46.5 18 L 41.5 13 L 39 14.5 L 43 20.5 L 41.5 23 L 41 21.5 L 42 20.5 L 39 17.5 L 37 14.5 L 40.5 11 L 41.5 12 L 47.5 16 L 43 10.5 L 41.5 8 L 34 14.5 L 38 17 L 39 22 L 37 21.5 L 38 19.5 L 33 16 Q 31.5 12.3 34.5 13 L 40.5 7 Z " /><path fill="rgb(254,254,254)" stroke="rgb(254,254,254)" stroke-width="1" opacity="1" d="M 28.5 16 L 31 17.5 L 32 19.5 L 30 20 Q 31 17 28 18 L 27.5 20 L 27 17.5 L 28.5 16 Z " /><path fill="rgb(254,254,254)" stroke="rgb(254,254,254)" stroke-width="1" opacity="1" d="M 49.5 20 L 52 20.5 L 49.5 21 L 49.5 20 Z " /><path fill="rgb(254,254,254)" stroke="rgb(254,254,254)" stroke-width="1" opacity="1" d="M 0.5 21 Q 5.5 20.5 6 24.5 L 6.5 26 L 11.5 22 L 14 24.5 L 5.5 33 L 0.5 37 L 0 35.5 L 12 24.5 L 11.5 23 L 6.5 28 L 4 28 L 0.5 33 L 0 31.5 Q 3.5 31 3 26.5 L 0 24.5 L 2.5 24 L 5 25.5 L 2.5 22 Q -0.5 22.5 0.5 21 Z " /><path fill="rgb(254,254,254)" stroke="rgb(254,254,254)" stroke-width="1" opacity="1" d="M 30.5 22 Q 32.8 21.3 32 23.5 L 35 25.5 L 33.5 26 L 31 25 L 30.5 22 Z " /><path fill="rgb(254,254,254)" stroke="rgb(254,254,254)" stroke-width="1" opacity="1" d="M 27.5 23 L 32 28.5 L 31 28.5 L 27.5 23 Z " /><path fill="rgb(254,254,254)" stroke="rgb(254,254,254)" stroke-width="1" opacity="1" d="M 29.5 30 L 28.5 32 L 29.5 30 Z " /><path fill="rgb(254,254,254)" stroke="rgb(254,254,254)" stroke-width="1" opacity="1" d="M 103.5 31 L 102.5 33 L 103.5 31 Z " /><path fill="rgb(254,254,254)" stroke="rgb(254,254,254)" stroke-width="1" opacity="1" d="M 7.5 34 Q 10.8 32.9 10 35.5 L 11.5 38 L 9 37 L 8.5 35 Q 4.7 37.2 10 39.5 L 8.5 42 L 4 45.5 L 4.5 47 L 11.5 41 L 12 42.5 L 4.5 48 L 3 44.5 L 9 39.5 L 6 35.5 L 7.5 34 Z " /><path fill="rgb(254,254,254)" stroke="rgb(254,254,254)" stroke-width="1" opacity="1" d="M 100.5 35 L 103 35.5 L 100.5 36 L 100.5 35 Z " /><path fill="rgb(254,254,254)" stroke="rgb(254,254,254)" stroke-width="1" opacity="1" d="M 25.5 39 L 23.5 42 L 25.5 39 Z " /><path fill="rgb(254,254,254)" stroke="rgb(254,254,254)" stroke-width="1" opacity="1" d="M 15.5 41 L 19 44.5 L 17 46.5 L 16.5 48 L 16 45.5 Q 18.5 44 15 42.5 L 15.5 41 Z " /><path fill="rgb(254,254,254)" stroke="rgb(254,254,254)" stroke-width="1" opacity="1" d="M 34.5 41 L 33.5 43 L 34.5 41 Z " /><path fill="rgb(254,254,254)" stroke="rgb(254,254,254)" stroke-width="1" opacity="1" d="M 115.5 44 L 123 47.5 L 124 49.5 L 111 61.5 L 112.5 64 L 110 62.5 L 110 60.5 L 118.5 52 L 122 49.5 Q 123.3 45.8 119.5 47 L 116.5 45 L 116 47 L 119 48.5 L 110.5 58 L 106.5 59 L 106.5 58 L 108.5 58 L 117 49.5 L 115.5 47 Q 113.3 47.8 114 45.5 L 115.5 44 Z " /><path fill="rgb(254,254,254)" stroke="rgb(254,254,254)" stroke-width="1" opacity="1" d="M 52.5 51 L 54 58.5 L 52 57.5 L 52.5 51 Z " /><path fill="rgb(254,254,254)" stroke="rgb(254,254,254)" stroke-width="1" opacity="1" d="M 86.5 56 L 85.5 58 L 86.5 56 Z " /><path fill="rgb(254,254,254)" stroke="rgb(254,254,254)" stroke-width="1" opacity="1" d="M 125.5 58 L 126 59.5 L 125 61.5 L 125.5 63 Q 123.3 63.8 124 61.5 Q 121.3 59.7 125.5 58 Z " /><path fill="rgb(254,254,254)" stroke="rgb(254,254,254)" stroke-width="1" opacity="1" d="M 79.5 59 L 80 65.5 L 79 65.5 L 79.5 59 Z " /><path fill="rgb(254,254,254)" stroke="rgb(254,254,254)" stroke-width="1" opacity="1" d="M 84.5 60 L 85.5 62 L 84.5 60 Z " /><path fill="rgb(254,254,254)" stroke="rgb(254,254,254)" stroke-width="1" opacity="1" d="M 105.5 60 L 107.5 63 Q 105.8 59.9 104 61.5 L 105.5 60 Z " /><path fill="rgb(254,254,254)" stroke="rgb(254,254,254)" stroke-width="1" opacity="1" d="M 38.5 65 L 39.5 67 L 38.5 65 Z " /><path fill="rgb(254,254,254)" stroke="rgb(254,254,254)" stroke-width="1" opacity="1" d="M 46.5 65 L 47.5 67 L 46.5 65 Z " /><path fill="rgb(254,254,254)" stroke="rgb(254,254,254)" stroke-width="1" opacity="1" d="M 35.5 66 L 34.5 68 L 35.5 66 Z " /><path fill="rgb(254,254,254)" stroke="rgb(254,254,254)" stroke-width="1" opacity="1" d="M 96.5 67 L 97.5 69 L 96.5 67 Z " /><path fill="rgb(254,254,254)" stroke="rgb(254,254,254)" stroke-width="1" opacity="1" d="M 40.5 69 L 41 71.5 L 40 71.5 L 40.5 69 Z " /><path fill="rgb(254,254,254)" stroke="rgb(254,254,254)" stroke-width="1" opacity="1" d="M 123.5 69 L 126 69.5 L 118 73.5 L 121.5 74 L 125.5 72 L 124.5 74 L 119.5 76 L 117 72.5 L 123.5 69 Z " /><path fill="rgb(254,254,254)" stroke="rgb(254,254,254)" stroke-width="1" opacity="1" d="M 69.5 71 L 70.5 73 L 69.5 71 Z " /><path fill="rgb(254,254,254)" stroke="rgb(254,254,254)" stroke-width="1" opacity="1" d="M 89.5 71 L 91 71.5 L 86 75.5 L 89.5 71 Z " /><path fill="rgb(254,254,254)" stroke="rgb(254,254,254)" stroke-width="1" opacity="1" d="M 8.5 73 L 9.5 75 L 8.5 73 Z " /><path fill="rgb(254,254,254)" stroke="rgb(254,254,254)" stroke-width="1" opacity="1" d="M 82.5 74 L 83 75.5 L 80.5 79 L 81 77.5 L 82.5 74 Z " /><path fill="rgb(254,254,254)" stroke="rgb(254,254,254)" stroke-width="1" opacity="1" d="M 91.5 74 L 90.5 76 L 91.5 74 Z " /><path fill="rgb(254,254,254)" stroke="rgb(254,254,254)" stroke-width="1" opacity="1" d="M 58.5 75 L 62 75.5 L 58.5 76 L 58.5 75 Z " /><path fill="rgb(254,254,254)" stroke="rgb(254,254,254)" stroke-width="1" opacity="1" d="M 94.5 76 L 97 80.5 L 92 78.5 L 94 78.5 L 94.5 76 Z " /><path fill="rgb(254,254,254)" stroke="rgb(254,254,254)" stroke-width="1" opacity="1" d="M 32.5 79 L 33 85.5 L 32 85.5 L 32.5 79 Z " /><path fill="rgb(254,254,254)" stroke="rgb(254,254,254)" stroke-width="1" opacity="1" d="M 105.5 79 L 107 79.5 L 104.5 84 L 100 81.5 L 105.5 79 Z " /><path fill="rgb(254,254,254)" stroke="rgb(254,254,254)" stroke-width="1" opacity="1" d="M 82 81 Q 85.7 79.5 85 82.5 L 86 84.5 L 83 86 L 82 81 Z " /><path fill="rgb(254,254,254)" stroke="rgb(254,254,254)" stroke-width="1" opacity="1" d="M 98.5 83 L 103 86 Q 101.3 90.1 105.5 89 Q 106.8 91.3 108 88.5 Q 107 84 109.5 83 L 112 84 L 111.5 90 Q 110.2 87.8 109 90.5 Q 109.9 93.5 105.5 92 L 104 95.5 L 104.5 97 L 102 98.5 L 102.5 100 L 97.5 100 L 93 96.5 Q 93.8 94.3 91.5 95 L 92 93.5 L 92.5 87 L 93.5 89 L 95.5 85 L 99.5 86 L 98.5 83 Z M 97 89 L 95 91 L 96 95 L 100 97 Q 103 96 102 92 L 97 89 Z " /><path fill="rgb(254,254,254)" stroke="rgb(254,254,254)" stroke-width="1" opacity="1" d="M 60.5 87 L 61 92.5 L 60 92.5 L 60.5 87 Z " /><path fill="rgb(254,254,254)" stroke="rgb(254,254,254)" stroke-width="1" opacity="1" d="M 66.5 89 Q 69.5 90.5 66.5 92 L 66.5 89 Z " /><path fill="rgb(254,254,254)" stroke="rgb(254,254,254)" stroke-width="1" opacity="1" d="M 75.5 93 L 72.5 97 Q 69.9 97.7 71 95 L 75.5 93 Z " /><path fill="rgb(254,254,254)" stroke="rgb(254,254,254)" stroke-width="1" opacity="1" d="M 114 93 L 122 95 L 124 102.5 L 121.5 106 L 119.5 105 L 117.5 106 L 116 105.5 L 117 109.5 L 116 112 L 111 114 L 110.5 112 L 108.5 113 L 104 106.5 L 104 103.5 L 104.5 101 L 112 99 L 111 95.5 L 114 95 L 114 93 Z M 117 96 L 114 97 L 113 101 Q 116 100 118 103 L 120 102 L 121 100 L 117 96 Z M 109 102 L 109 104 Q 106 105 107 108 L 112 109 L 114 107 L 114 105 Q 113 101 109 102 Z " /><path fill="rgb(254,254,254)" stroke="rgb(254,254,254)" stroke-width="1" opacity="1" d="M 18.5 99 L 19.5 101 L 18.5 99 Z " /><path fill="rgb(254,254,254)" stroke="rgb(254,254,254)" stroke-width="1" opacity="1" d="M 55.5 99 L 58.5 103 Q 61.8 104.1 61 101.5 Q 63 97 65 100.5 L 61.5 105 L 65.5 102 L 68 102.5 L 64 104.5 L 64.5 106 L 63.5 105 L 60.5 108 L 57 105.5 L 55.5 103 Q 52.9 103.8 54 100.5 L 55.5 99 Z " /><path fill="rgb(254,254,254)" stroke="rgb(254,254,254)" stroke-width="1" opacity="1" d="M 69.5 99 L 71 101.5 L 69 100.5 L 69.5 99 Z " /><path fill="rgb(254,254,254)" stroke="rgb(254,254,254)" stroke-width="1" opacity="1" d="M 79.5 99 L 82 100.5 L 85.5 106 L 88 107.5 L 91 111.5 L 85 113 L 84.5 115 L 83.5 113 L 82 116 L 79 114.5 L 78 110.5 L 80 111.5 L 80.5 113 L 81 110 L 84 108.5 L 82.5 106 L 79.5 104 L 76.5 105 L 75.5 101 L 78.5 102 L 81 100.5 L 79.5 99 Z " /><path fill="rgb(254,254,254)" stroke="rgb(254,254,254)" stroke-width="1" opacity="1" d="M 71.5 103 L 72.5 105 L 71.5 103 Z " /><path fill="rgb(254,254,254)" stroke="rgb(254,254,254)" stroke-width="1" opacity="1" d="M 124.5 106 Q 127.5 105.1 126 109.5 L 124.5 112 L 124 110 Q 121.3 111.1 122 108.5 L 124.5 106 Z " /><path fill="rgb(254,254,254)" stroke="rgb(254,254,254)" stroke-width="1" opacity="1" d="M 24.5 109 L 25.5 111 L 24.5 109 Z " /><path fill="rgb(254,254,254)" stroke="rgb(254,254,254)" stroke-width="1" opacity="1" d="M 49.5 109 L 50.5 111 L 49.5 109 Z " /><path fill="rgb(254,254,254)" stroke="rgb(254,254,254)" stroke-width="1" opacity="1" d="M 65.5 110 L 66 114.5 L 64.5 116 L 54.5 116 L 54.5 115 L 65 115 L 65.5 110 Z " /><path fill="rgb(254,254,254)" stroke="rgb(254,254,254)" stroke-width="1" opacity="1" d="M 44.5 111 L 42.5 114 L 44.5 111 Z " /><path fill="rgb(254,254,254)" stroke="rgb(254,254,254)" stroke-width="1" opacity="1" d="M 74.5 113 L 74.5 116 L 71 115.5 L 74.5 113 Z " /><path fill="rgb(254,254,254)" stroke="rgb(254,254,254)" stroke-width="1" opacity="1" d="M 90.5 115 L 94 115 L 94 117 Q 97.7 115.5 97 118.5 Q 100.5 119 100 123.5 L 96.5 128 L 94.5 128 Q 92.3 128.8 93 126.5 L 92 126.5 L 91 128.5 L 91.5 130 L 88 129.5 L 90 129 L 89 125 L 84 124 Q 85.1 126.7 82.5 126 L 83 127.5 L 84 129.5 L 81.5 130 L 79 128.5 Q 76.4 121.2 82.5 123 L 85.5 121 L 86.5 123 L 88 120.5 L 88 118.5 L 90.5 115 Z M 92 119 L 89 123 L 93 125 L 97 123 Q 97 119 92 119 Z " /><path fill="rgb(254,254,254)" stroke="rgb(254,254,254)" stroke-width="1" opacity="1" d="M 122.5 117 L 124.5 117 Q 127.5 116.1 126 120.5 L 124 120.5 Q 125.1 123.8 122.5 123 L 120.5 123 Q 115.3 124.8 117 119.5 L 119.5 119 L 122.5 117 Z " /><path fill="rgb(254,254,254)" stroke="rgb(254,254,254)" stroke-width="1" opacity="1" d="M 70.5 118 L 71 120 L 69 119.5 L 70.5 118 Z " /><path fill="rgb(254,254,254)" stroke="rgb(254,254,254)" stroke-width="1" opacity="1" d="M 23.5 127 Q 30 126 32 129.5 L 30.5 129 L 25.5 128 L 21.5 130 L 23.5 127 Z " /><path fill="rgb(254,254,254)" stroke="rgb(254,254,254)" stroke-width="1" opacity="1" d="M 103.5 128 L 105.5 129 L 107 128.5 Q 107.6 131.3 101.5 130 L 101.5 129 L 103.5 128 Z " /><path fill="rgb(255,255,255)" stroke="rgb(255,255,255)" stroke-width="1" opacity="1" d="M 0 0 Q 7 -1.3 9.5 3 L 12.5 2 Q 16 -1.2 23 0 Q 24.1 2.7 21.5 2 L 19.5 2 L 16 3.5 L 15 10.5 Q 17.3 15.8 24.5 16 L 29 12.5 Q 27.1 7.1 30.5 8 L 32.5 8 L 35 6.5 L 36 1.5 L 35.5 0 L 50.5 0 L 51.5 1 L 53.5 0 L 53.5 1 Q 50.9 0.3 52 3 Q 55.8 4.5 55 1.5 Q 56.5 -1.5 62.5 0 Q 63.6 2.8 67 2 L 67.5 0 L 126 0 L 126 57.5 L 123 60.5 L 124 63 L 126 63 L 126 69 L 117 72.5 L 119.5 76 L 125.5 73 L 126 106 L 122 108.5 L 124 111.5 L 125 111.5 L 125.5 110 L 126 117 L 123.5 118 Q 122 115.5 120.5 119 L 118.5 120 L 117 119.5 Q 115.3 124.8 120.5 123 L 122.5 123 Q 125.1 123.8 124 120.5 L 126 121.5 L 126 130 L 107 130 L 106.5 128 L 104.5 128 Q 100.8 131.3 92.5 130 Q 89.8 128.8 92 127.5 L 92.5 126 L 93 128 L 95.5 127 Q 96.8 129.3 98 126.5 L 100 121.5 L 97 117 Q 92.9 118.3 94 115 L 90.5 115 L 87 119.5 L 87 121.5 L 86.5 123 L 85.5 121 Q 83.5 123.8 79 123 L 80 129.5 L 32.5 130 Q 30.6 125.9 23.5 127 L 20.5 130 L 0 130 L 0 37.5 L 4.5 33 L 14 24.5 L 10.5 22 L 6 25.5 L 2.5 21 L 0 20.5 L 0 0 Z M 41 7 L 33 13 Q 31 17 35 16 L 38 21 L 33 20 L 31 18 L 29 16 L 27 20 L 18 23 L 12 34 L 12 37 L 10 34 L 6 36 L 9 40 L 3 45 L 5 48 L 12 43 Q 12 49 16 52 Q 13 64 6 72 L 6 75 Q 9 79 15 79 L 16 77 L 16 79 L 22 81 L 24 81 L 24 87 Q 16 86 11 91 L 12 95 L 26 117 L 27 118 L 70 118 L 70 120 L 73 118 L 75 118 L 80 118 Q 79 115 82 116 L 84 113 L 85 115 L 85 113 L 91 112 L 88 108 L 86 106 L 82 100 L 77 104 L 78 102 L 76 101 L 73 97 L 77 93 L 89 88 L 91 86 Q 90 79 94 77 L 98 84 L 100 86 L 96 85 L 94 89 L 93 87 L 92 94 L 92 95 Q 94 94 93 97 L 98 100 L 103 100 L 102 99 L 105 97 L 104 96 L 106 92 Q 110 93 109 91 Q 110 88 112 90 L 112 84 L 109 83 L 112 79 L 110 76 L 114 75 L 118 69 L 118 65 Q 113 65 111 62 L 124 50 L 123 48 L 116 44 L 114 47 L 117 49 L 109 58 L 107 58 L 111 51 L 111 46 L 111 44 L 112 42 L 109 33 L 103 26 Q 99 27 100 24 L 96 23 Q 85 22 81 27 L 62 20 Q 50 19 44 22 L 42 23 L 43 21 L 39 15 L 42 13 L 47 18 L 49 16 L 44 10 L 41 7 Z M 114 93 L 114 95 L 111 96 L 112 99 L 105 101 L 104 104 L 106 111 L 110 113 L 111 113 Q 110 115 113 114 L 112 113 L 114 113 L 116 112 L 117 110 L 116 107 L 117 105 L 119 106 L 121 106 L 123 105 L 122 103 L 124 103 L 122 95 L 114 93 Z " /><path fill="rgb(255,255,255)" stroke="rgb(255,255,255)" stroke-width="1" opacity="1" d="M 27.5 0 Q 31.9 -1.5 31 1.5 L 31 3.5 Q 31.8 6.1 28.5 5 L 26 1.5 L 27.5 0 Z " /><path fill="rgb(255,255,255)" stroke="rgb(255,255,255)" stroke-width="1" opacity="1" d="M 20.5 5 Q 24.5 4.5 25 7.5 Q 26.5 11.9 23.5 11 L 21.5 12 Q 18.3 11.3 19 6.5 L 20.5 5 Z " /><path fill="rgb(255,255,255)" stroke="rgb(255,255,255)" stroke-width="1" opacity="1" d="M 26.5 23 L 31 28.5 L 26 32.5 L 26.5 23 Z " /><path fill="rgb(255,255,255)" stroke="rgb(255,255,255)" stroke-width="1" opacity="1" d="M 32.5 23 L 36 24.5 L 33.5 25 L 32.5 23 Z " /><path fill="rgb(255,255,255)" stroke="rgb(255,255,255)" stroke-width="1" opacity="1" d="M 50.5 23 L 61.5 23 L 70.5 26 L 77 30.5 Q 77.6 35.1 75 36.5 L 75 47.5 L 77 51.5 L 77 68.5 L 76 68.5 L 71.5 54 L 70.5 58 L 68 54.5 L 67 45.5 L 65.5 44 L 64.5 57 L 62 53.5 L 61 40 Q 58 38.8 59 42.5 L 53.5 58 L 52 46 L 50 46.5 L 50 63.5 L 48.5 63 Q 46.3 63.8 47 61.5 L 44 56.5 L 43 45 L 40 46.5 L 38 50.5 L 37 58.5 L 35.5 60 L 35 45.5 L 38 39.5 L 36.5 39 L 33 42.5 L 29 53.5 L 27 55.5 L 25 72.5 L 26 74.5 L 25 74.5 L 23 59.5 Q 25.8 57.8 24 51.5 L 23 51.5 L 21 56.5 L 20.5 68 L 19 56.5 Q 21.5 55 20 49.5 L 23 42.5 L 31.5 32 Q 39.3 25.8 50.5 23 Z " /><path fill="rgb(255,255,255)" stroke="rgb(255,255,255)" stroke-width="1" opacity="1" d="M 0 25 L 3 26.5 Q 3.5 30.5 0.5 31 L 0 25 Z " /><path fill="rgb(255,255,255)" stroke="rgb(255,255,255)" stroke-width="1" opacity="1" d="M 90.5 26 Q 99 26 103 30.5 L 105 33.5 Q 109.1 36.4 108 44.5 L 100.5 54 Q 92.5 55.5 91 50.5 L 89 42.5 Q 91.8 41.4 91 38 L 96.5 35 L 99.5 35 L 103 36 L 102 30 Q 99.3 28.1 92.5 29 L 86 33.5 L 83 37.5 L 83 51.5 L 86 57 L 89 58.5 L 87.5 59 Q 86.4 56.3 83 57 L 78 47.5 L 78 39.5 L 83 29 L 90.5 26 Z " /><path fill="rgb(255,255,255)" stroke="rgb(255,255,255)" stroke-width="1" opacity="1" d="M 20.5 27 L 20 28.5 Q 21.3 33.3 18 32 Q 17.3 28.2 20.5 27 Z " /><path fill="rgb(255,255,255)" stroke="rgb(255,255,255)" stroke-width="1" opacity="1" d="M 16.5 38 Q 20.3 36.8 19 40.5 L 20 42.5 L 18.5 44 L 15 40.5 L 16.5 38 Z " /><path fill="rgb(255,255,255)" stroke="rgb(255,255,255)" stroke-width="1" opacity="1" d="M 58 56 Q 60.7 54.9 60 57.5 L 63 61.5 L 56 62 L 58 56 Z " /><path fill="rgb(255,255,255)" stroke="rgb(255,255,255)" stroke-width="1" opacity="1" d="M 40.5 57 L 42 60.5 L 40.5 60 Q 38.3 60.8 39 58.5 L 40.5 57 Z " /><path fill="rgb(255,255,255)" stroke="rgb(255,255,255)" stroke-width="1" opacity="1" d="M 80.5 57 L 86 63.5 Q 83.8 64.8 85 69.5 L 78.5 82 L 75.5 84 L 73.5 85 L 74 83.5 Q 80.2 73.2 80.5 57 Z " /><path fill="rgb(255,255,255)" stroke="rgb(255,255,255)" stroke-width="1" opacity="1" d="M 30.5 59 L 33 60 L 35 66.5 L 30 70.5 L 28.5 73 L 28 65.5 L 30.5 59 Z " /><path fill="rgb(255,255,255)" stroke="rgb(255,255,255)" stroke-width="1" opacity="1" d="M 103.5 60 L 107 62.5 L 104.5 61 L 103.5 60 Z " /><path fill="rgb(255,255,255)" stroke="rgb(255,255,255)" stroke-width="1" opacity="1" d="M 39 63 L 43.5 63 L 49.5 69 L 53 69 L 54 64 Q 57 66 64.5 65 L 66.5 65 L 69.5 66 L 71 65.5 L 74 69.5 L 75 74.5 L 73.5 78 L 69.5 71 Q 67.2 67.8 60.5 69 L 55 72 L 53 75.5 L 53 81 L 56.5 79 L 58 87 L 49.5 89 L 41 86 Q 40 83 43 84 L 43 81.5 L 44.5 79 L 47 80 L 47 73.5 L 44 68 L 39 65.5 L 39 63 Z " /><path fill="rgb(255,255,255)" stroke="rgb(255,255,255)" stroke-width="1" opacity="1" d="M 14.5 64 Q 17.9 63.1 16 68.5 L 12.5 76 L 9 73.5 L 9 71.5 L 14.5 64 Z " /><path fill="rgb(255,255,255)" stroke="rgb(255,255,255)" stroke-width="1" opacity="1" d="M 103.5 65 L 115 67.5 L 112 72 Q 107 72.8 105 69.5 L 103.5 65 Z " /><path fill="rgb(255,255,255)" stroke="rgb(255,255,255)" stroke-width="1" opacity="1" d="M 96.5 68 L 99 69 L 103.5 75 L 106 76.5 L 107 78.5 L 100.5 81 L 96 72.5 L 96.5 68 Z " /><path fill="rgb(255,255,255)" stroke="rgb(255,255,255)" stroke-width="1" opacity="1" d="M 36.5 69 Q 41.3 67.3 40 71.5 L 42 74.5 L 40.5 74 L 32 72.5 L 36.5 69 Z " /><path fill="rgb(255,255,255)" stroke="rgb(255,255,255)" stroke-width="1" opacity="1" d="M 60.5 72 Q 66.3 69.9 65 74.5 L 65.5 76 L 58.5 75 L 56.5 76 L 56.5 75 L 60.5 72 Z " /><path fill="rgb(255,255,255)" stroke="rgb(255,255,255)" stroke-width="1" opacity="1" d="M 33.5 76 L 41 77 L 39 86 L 33 86 L 33 78.5 Q 30.7 77.3 33.5 76 Z " /><path fill="rgb(255,255,255)" stroke="rgb(255,255,255)" stroke-width="1" opacity="1" d="M 29.5 79 L 31 82.5 L 30 82.5 L 29.5 79 Z " /><path fill="rgb(255,255,255)" stroke="rgb(255,255,255)" stroke-width="1" opacity="1" d="M 61.5 79 L 67 80 L 68 87.5 L 66 91.5 L 68 91.5 Q 69.3 96.1 63.5 94 L 61 95 L 60 84.5 L 61 82.5 L 60 80.5 L 61.5 79 Z " /><path fill="rgb(255,255,255)" stroke="rgb(255,255,255)" stroke-width="1" opacity="1" d="M 85.5 79 L 88 80.5 L 86.5 84 L 84 80.5 L 85.5 79 Z " /><path fill="rgb(255,255,255)" stroke="rgb(255,255,255)" stroke-width="1" opacity="1" d="M 81.5 83 L 83 87 L 79 85.5 L 81.5 83 Z " /><path fill="rgb(255,255,255)" stroke="rgb(255,255,255)" stroke-width="1" opacity="1" d="M 27 84 Q 31.1 82.7 30 86 Q 25.9 87.3 27 84 Z " /><path fill="rgb(255,255,255)" stroke="rgb(255,255,255)" stroke-width="1" opacity="1" d="M 107.5 86 L 108 88.5 Q 106.8 91.3 105.5 89 Q 101.8 90 103 87 L 107.5 86 Z " /><path fill="rgb(255,255,255)" stroke="rgb(255,255,255)" stroke-width="1" opacity="1" d="M 76.5 87 L 78 87.5 L 72 91 Q 70.9 88.3 73.5 89 L 76.5 87 Z " /><path fill="rgb(255,255,255)" stroke="rgb(255,255,255)" stroke-width="1" opacity="1" d="M 27.5 88 L 35.5 88 L 46.5 90 L 55.5 94 L 63 99.5 L 61 103 L 57 101.5 L 55.5 99 L 54 103 L 57 104.5 L 59 109 L 52.5 112 L 49.5 109 L 42.5 106 L 24.5 106 Q 23.3 108.3 22 105.5 L 15 93.5 L 15 91 L 27.5 88 Z " /><path fill="rgb(255,255,255)" stroke="rgb(255,255,255)" stroke-width="1" opacity="1" d="M 57.5 89 L 58 92 Q 55.3 93.1 56 90.5 L 57.5 89 Z " /><path fill="rgb(255,255,255)" stroke="rgb(255,255,255)" stroke-width="1" opacity="1" d="M 96.5 89 L 102 91.5 Q 102.8 96.3 99.5 97 L 96 94.5 L 95 90.5 L 96.5 89 Z " /><path fill="rgb(255,255,255)" stroke="rgb(255,255,255)" stroke-width="1" opacity="1" d="M 116.5 96 L 121 99.5 L 119.5 102 L 117.5 103 Q 116.4 100.3 113 101 L 114 97 L 116.5 96 Z " /><path fill="rgb(255,255,255)" stroke="rgb(255,255,255)" stroke-width="1" opacity="1" d="M 64.5 101 L 67 102.5 L 63.5 106 L 62.5 105 L 61 104.5 L 64.5 101 Z " /><path fill="rgb(255,255,255)" stroke="rgb(255,255,255)" stroke-width="1" opacity="1" d="M 108.5 102 Q 113.3 101.3 114 104.5 L 113.5 109 L 111.5 109 L 107 108 Q 106.3 104.6 109 103.5 L 108.5 102 Z " /><path fill="rgb(255,255,255)" stroke="rgb(255,255,255)" stroke-width="1" opacity="1" d="M 71.5 104 L 70.5 106 L 71.5 104 Z " /><path fill="rgb(255,255,255)" stroke="rgb(255,255,255)" stroke-width="1" opacity="1" d="M 79.5 104 L 82.5 106 L 84 108.5 L 81 110 L 80.5 113 Q 76.4 110.3 77 105 L 79.5 104 Z " /><path fill="rgb(255,255,255)" stroke="rgb(255,255,255)" stroke-width="1" opacity="1" d="M 72.5 107 Q 75.5 106.1 74 110.5 L 75 112.5 L 74.5 115 L 72.5 115 Q 65.8 117.3 68 110.5 L 72.5 107 Z " /><path fill="rgb(255,255,255)" stroke="rgb(255,255,255)" stroke-width="1" opacity="1" d="M 32.5 108 L 37 108.5 L 32.5 109 L 32.5 108 Z " /><path fill="rgb(255,255,255)" stroke="rgb(255,255,255)" stroke-width="1" opacity="1" d="M 25.5 109 Q 31.8 107.1 30 112 L 26 113 L 25.5 109 Z " /><path fill="rgb(255,255,255)" stroke="rgb(255,255,255)" stroke-width="1" opacity="1" d="M 39.5 109 Q 44 108 45 110.5 L 41 113 L 39.5 109 Z " /><path fill="rgb(255,255,255)" stroke="rgb(255,255,255)" stroke-width="1" opacity="1" d="M 64.5 110 L 65 115 L 55 114.5 L 64.5 110 Z " /><path fill="rgb(255,255,255)" stroke="rgb(255,255,255)" stroke-width="1" opacity="1" d="M 33.5 112 L 38 113 L 37.5 115 L 30.5 115 L 30.5 114 L 33.5 112 Z " /><path fill="rgb(255,255,255)" stroke="rgb(255,255,255)" stroke-width="1" opacity="1" d="M 47 112 L 50 113.5 Q 50.9 116.9 45.5 115 L 45.5 114 Q 48.1 114.7 47 112 Z " /><path fill="rgb(255,255,255)" stroke="rgb(255,255,255)" stroke-width="1" opacity="1" d="M 89.5 119 L 91.5 119 Q 96.5 118.5 97 122.5 L 92.5 125 L 89 123 L 90 120.5 L 89.5 119 Z " /><path fill="rgb(255,255,255)" stroke="rgb(255,255,255)" stroke-width="1" opacity="1" d="M 84 124 L 89 125 L 90 129 L 84.5 130 L 82 129.5 L 83 127.5 L 82.5 126 Q 85.1 126.7 84 124 Z " /><path fill="rgb(45,45,45)" stroke="rgb(45,45,45)" stroke-width="1" opacity="1" d="M 23.5 22 Q 26.9 21.1 25 26.5 L 24 27.5 L 24 35.5 L 25 37.5 L 20.5 45 L 20 43.5 L 21 41.5 L 18.5 37 L 15 36 L 14 44.5 L 17.5 50 L 19.5 46 L 20 47.5 Q 16.3 53.3 18 64.5 L 22.5 74 L 24 73.5 L 25 77.5 Q 24.3 79.8 20.5 79 L 17 78 L 16.5 73 L 13.5 78 L 14 76.5 Q 18.8 71.1 17 60 L 14 61.5 L 11.5 66 L 12 64.5 L 17 54.5 L 17 51.5 Q 10.8 47.2 13 34.5 L 18.5 25 Q 21.1 25.7 20 23 L 22.5 23 L 23.5 22 Z M 21 25 L 16 32 L 21 33 L 22 27 Q 23 24 21 25 Z " /><path fill="rgb(45,45,45)" stroke="rgb(45,45,45)" stroke-width="1" opacity="1" d="M 35.5 22 L 40 24.5 L 38.5 27 L 36.5 27 L 29.5 33 L 37 24.5 Q 37.8 22.3 35.5 23 L 35.5 22 Z " /><path fill="rgb(45,45,45)" stroke="rgb(45,45,45)" stroke-width="1" opacity="1" d="M 47.5 22 L 51 22.5 L 47.5 23 L 47.5 22 Z " /><path fill="rgb(45,45,45)" stroke="rgb(45,45,45)" stroke-width="1" opacity="1" d="M 61.5 22 L 64 22.5 L 61.5 23 L 61.5 22 Z " /><path fill="rgb(45,45,45)" stroke="rgb(45,45,45)" stroke-width="1" opacity="1" d="M 43.5 23 L 46 23.5 L 43.5 24 L 43.5 23 Z " /><path fill="rgb(45,45,45)" stroke="rgb(45,45,45)" stroke-width="1" opacity="1" d="M 65.5 23 L 69 23.5 L 65.5 24 L 65.5 23 Z " /><path fill="rgb(45,45,45)" stroke="rgb(45,45,45)" stroke-width="1" opacity="1" d="M 86.5 25 L 90 25.5 Q 82.7 26.2 80 31.5 L 77 37.5 L 76.5 48 L 76 37.5 L 79 30.5 L 76 29 L 76.5 27 L 80.5 29 L 86.5 25 Z " /><path fill="rgb(45,45,45)" stroke="rgb(45,45,45)" stroke-width="1" opacity="1" d="M 95.5 25 L 100 26.5 L 98.5 27 L 95.5 26 L 95.5 25 Z " /><path fill="rgb(45,45,45)" stroke="rgb(45,45,45)" stroke-width="1" opacity="1" d="M 101.5 27 L 103.5 30 L 101.5 27 Z " /><path fill="rgb(45,45,45)" stroke="rgb(45,45,45)" stroke-width="1" opacity="1" d="M 93.5 30 Q 98.9 29.4 101 31 L 101 35 L 99.5 35 L 97.5 34 Q 91.8 35.3 89 39.5 L 89 49.5 L 93.5 55 L 99.5 56 L 106 50.5 L 106.5 47 Q 107.8 49.3 109 46.5 L 109.5 38 L 110 49.5 L 107 57 L 101 60 Q 99.8 63 103.5 62 L 108 64.5 L 106.5 65 L 102 64 Q 101.4 69.3 105.5 72 L 108 72.5 L 107 75 Q 109.7 73.9 109 76.5 L 110 79.5 L 105.5 86 Q 100.8 85.8 99 82.5 L 101.5 84 Q 106 85 107 82.5 L 109 78.5 L 108 76 L 100 69.5 L 96.5 65 Q 93.3 66.8 95 73.5 L 96 75.5 L 95 75.5 L 93 72.5 L 93 70.5 Q 94.5 66.1 91.5 67 L 85 74.5 L 85 77 L 90.5 78 L 92 77.5 Q 91.6 84.1 87.5 87 L 68 95.5 L 74 100.5 L 78 112.5 L 78 117 L 76 116.5 L 76 108.5 L 75 106 L 73 105.5 L 74 103.5 L 68.5 97 Q 64.1 95.5 65 98.5 L 62.5 97 L 61 96.5 L 72.5 93 L 79 88.5 L 79.5 87 L 82.5 88 L 89 83.5 L 88 78 Q 80.5 78.5 77.5 85 L 82 79.5 L 86 69.5 L 86 60.5 L 84.5 58 Q 87.7 61.8 95.5 61 L 96.5 59 Q 90.3 59.6 88 57 L 84 50.5 L 83 42.5 L 88 32 L 93.5 30 Z M 89 62 L 88 67 L 89 69 L 92 64 Q 93 60 89 62 Z " /><path fill="rgb(45,45,45)" stroke="rgb(45,45,45)" stroke-width="1" opacity="1" d="M 105.5 31 L 106.5 33 L 105.5 31 Z " /><path fill="rgb(45,45,45)" stroke="rgb(45,45,45)" stroke-width="1" opacity="1" d="M 35.5 41 L 36 42.5 Q 32.6 45.3 34 52 L 31 53.5 L 27.5 64 L 27 60.5 L 29 53.5 L 35.5 41 Z " /><path fill="rgb(45,45,45)" stroke="rgb(45,45,45)" stroke-width="1" opacity="1" d="M 59.5 44 L 63 58.5 L 65.5 61 Q 68.9 61.9 67 56.5 L 66 53.5 L 67 53.5 L 70 62 L 73 63.5 L 74 67.5 L 73 67.5 L 69.5 63 L 67.5 64 L 64 62.5 L 65 61.5 L 62 58.5 L 60 53 Q 57.3 51.9 58 54.5 L 54.5 61 L 54 59.5 L 59.5 44 Z " /><path fill="rgb(45,45,45)" stroke="rgb(45,45,45)" stroke-width="1" opacity="1" d="M 41.5 46 Q 41.1 61.4 50.5 67 L 53.5 62 L 56 62.5 L 53 63 Q 53.8 66.8 50.5 68 L 43 61.5 L 43 59.5 L 40.5 54 L 38.5 58 L 38 55.5 L 41.5 46 Z " /><path fill="rgb(45,45,45)" stroke="rgb(45,45,45)" stroke-width="1" opacity="1" d="M 77.5 50 L 80 53.5 L 78 54 L 77.5 50 Z " /><path fill="rgb(45,45,45)" stroke="rgb(45,45,45)" stroke-width="1" opacity="1" d="M 50.5 57 L 51 60.5 L 50 60.5 L 50.5 57 Z " /><path fill="rgb(45,45,45)" stroke="rgb(45,45,45)" stroke-width="1" opacity="1" d="M 33.5 59 L 34.5 61 L 33.5 59 Z " /><path fill="rgb(45,45,45)" stroke="rgb(45,45,45)" stroke-width="1" opacity="1" d="M 37.5 64 L 38 67.5 L 37 67.5 L 36 65.5 L 37.5 64 Z " /><path fill="rgb(45,45,45)" stroke="rgb(45,45,45)" stroke-width="1" opacity="1" d="M 26.5 65 L 27 72.5 L 26 72.5 L 26.5 65 Z " /><path fill="rgb(45,45,45)" stroke="rgb(45,45,45)" stroke-width="1" opacity="1" d="M 110.5 65 L 114 65.5 L 110.5 66 L 110.5 65 Z " /><path fill="rgb(45,45,45)" stroke="rgb(45,45,45)" stroke-width="1" opacity="1" d="M 116.5 66 L 117 67.5 L 115 68.5 L 116.5 66 Z " /><path fill="rgb(45,45,45)" stroke="rgb(45,45,45)" stroke-width="1" opacity="1" d="M 33.5 69 L 32.5 71 L 33.5 69 Z " /><path fill="rgb(45,45,45)" stroke="rgb(45,45,45)" stroke-width="1" opacity="1" d="M 42.5 69 L 45 72.5 L 42.5 73 Q 39.8 71.8 42 70.5 L 42.5 69 Z " /><path fill="rgb(45,45,45)" stroke="rgb(45,45,45)" stroke-width="1" opacity="1" d="M 114.5 70 L 113 72.5 L 111.5 75 L 112 73.5 L 114.5 70 Z " /><path fill="rgb(45,45,45)" stroke="rgb(45,45,45)" stroke-width="1" opacity="1" d="M 57.5 72 L 56.5 74 L 57.5 72 Z " /><path fill="rgb(45,45,45)" stroke="rgb(45,45,45)" stroke-width="1" opacity="1" d="M 67 72 L 70 73.5 L 71 75.5 L 68.5 76 L 67 74.5 L 67 72 Z " /><path fill="rgb(45,45,45)" stroke="rgb(45,45,45)" stroke-width="1" opacity="1" d="M 76.5 72 L 77 74.5 L 76 74.5 L 76.5 72 Z " /><path fill="rgb(45,45,45)" stroke="rgb(45,45,45)" stroke-width="1" opacity="1" d="M 57.5 77 L 64 77.5 L 57.5 78 L 57.5 77 Z " /><path fill="rgb(45,45,45)" stroke="rgb(45,45,45)" stroke-width="1" opacity="1" d="M 71.5 77 L 72.5 82 L 74 81.5 L 72.5 83 Q 70.3 78.8 68 80.5 Q 68.8 77.9 65.5 79 L 65.5 78 L 71 79 L 71.5 77 Z " /><path fill="rgb(45,45,45)" stroke="rgb(45,45,45)" stroke-width="1" opacity="1" d="M 96.5 77 L 99 80.5 L 97 79.5 L 96.5 77 Z " /><path fill="rgb(45,45,45)" stroke="rgb(45,45,45)" stroke-width="1" opacity="1" d="M 25.5 79 L 27.5 82 L 25.5 79 Z " /><path fill="rgb(45,45,45)" stroke="rgb(45,45,45)" stroke-width="1" opacity="1" d="M 41 79 L 43 79.5 L 41.5 82 L 41 79 Z " /><path fill="rgb(45,45,45)" stroke="rgb(45,45,45)" stroke-width="1" opacity="1" d="M 71.5 84 L 69.5 87 L 71.5 84 Z " /><path fill="rgb(45,45,45)" stroke="rgb(45,45,45)" stroke-width="1" opacity="1" d="M 74.5 86 L 73.5 88 L 72 87.5 L 74.5 86 Z " /><path fill="rgb(45,45,45)" stroke="rgb(45,45,45)" stroke-width="1" opacity="1" d="M 23.5 87 L 29 87.5 L 23.5 88 L 23.5 87 Z " /><path fill="rgb(45,45,45)" stroke="rgb(45,45,45)" stroke-width="1" opacity="1" d="M 33.5 87 L 41 87.5 L 33.5 88 L 33.5 87 Z " /><path fill="rgb(45,45,45)" stroke="rgb(45,45,45)" stroke-width="1" opacity="1" d="M 42.5 87 L 45 88.5 L 43.5 89 L 42.5 87 Z " /><path fill="rgb(45,45,45)" stroke="rgb(45,45,45)" stroke-width="1" opacity="1" d="M 56.5 88 L 55.5 90 L 54 89.5 L 56.5 88 Z " /><path fill="rgb(45,45,45)" stroke="rgb(45,45,45)" stroke-width="1" opacity="1" d="M 68.5 88 Q 71.1 87.2 70 90.5 L 69 90.5 L 68.5 88 Z " /><path fill="rgb(45,45,45)" stroke="rgb(45,45,45)" stroke-width="1" opacity="1" d="M 13.5 90 L 15 90.5 L 12.5 92 L 13.5 90 Z " /><path fill="rgb(45,45,45)" stroke="rgb(45,45,45)" stroke-width="1" opacity="1" d="M 49.5 90 L 52 90.5 L 49.5 91 L 49.5 90 Z " /><path fill="rgb(45,45,45)" stroke="rgb(45,45,45)" stroke-width="1" opacity="1" d="M 17.5 99 L 19 101.5 L 17 100.5 L 17.5 99 Z " /><path fill="rgb(45,45,45)" stroke="rgb(45,45,45)" stroke-width="1" opacity="1" d="M 67.5 100 L 70 103.5 L 66.5 106 L 66.5 105 L 69 103.5 L 67.5 100 Z " /><path fill="rgb(45,45,45)" stroke="rgb(45,45,45)" stroke-width="1" opacity="1" d="M 64.5 106 L 64.5 108 L 68.5 107 L 68 108.5 L 67.5 110 L 63.5 108 L 55.5 113 L 56.5 111 L 64.5 106 Z " /><path fill="rgb(45,45,45)" stroke="rgb(45,45,45)" stroke-width="1" opacity="1" d="M 38 107 L 41 107.5 L 38.5 109 L 38 107 Z " /><path fill="rgb(45,45,45)" stroke="rgb(45,45,45)" stroke-width="1" opacity="1" d="M 22.5 108 Q 25.1 107.2 24 110.5 L 23 110.5 L 22.5 108 Z " /><path fill="rgb(45,45,45)" stroke="rgb(45,45,45)" stroke-width="1" opacity="1" d="M 31.5 111 L 33 111.5 L 30.5 113 L 31.5 111 Z " /><path fill="rgb(45,45,45)" stroke="rgb(45,45,45)" stroke-width="1" opacity="1" d="M 36.5 111 Q 41.3 109.3 40 113.5 L 39 113.5 Q 39.8 110.9 36.5 112 L 36.5 111 Z " /><path fill="rgb(45,45,45)" stroke="rgb(45,45,45)" stroke-width="1" opacity="1" d="M 45.5 112 L 43.5 115 L 45.5 112 Z " /><path fill="rgb(45,45,45)" stroke="rgb(45,45,45)" stroke-width="1" opacity="1" d="M 53.5 113 L 52.5 115 L 48.5 117 L 48.5 116 L 53.5 113 Z " /><path fill="rgb(45,45,45)" stroke="rgb(45,45,45)" stroke-width="1" opacity="1" d="M 26.5 115 L 27.5 117 L 26.5 115 Z " /><path fill="rgb(249,249,249)" stroke="rgb(249,249,249)" stroke-width="1" opacity="1" d="M 7.5 0 L 13 0.5 L 7.5 1 L 7.5 0 Z " /><path fill="rgb(249,249,249)" stroke="rgb(249,249,249)" stroke-width="1" opacity="1" d="M 32 0 Q 34.7 -1.1 34 1.5 L 35 3.5 L 32.5 7 L 29 6.5 L 33 3.5 L 32 0 Z " /><path fill="rgb(249,249,249)" stroke="rgb(249,249,249)" stroke-width="1" opacity="1" d="M 18.5 3 Q 25.5 1.5 27 5.5 L 26.5 7 Q 25.5 3 19.5 4 Q 17 5 18 9.5 Q 18.7 13.8 24.5 13 L 26.5 8 L 28 11.5 Q 26.3 14.8 21.5 15 L 17 11.5 L 16 5.5 L 18.5 3 Z " /><path fill="rgb(249,249,249)" stroke="rgb(249,249,249)" stroke-width="1" opacity="1" d="M 41.5 8 L 48 15.5 L 46.5 16 L 40.5 11 L 37 16 Q 39.7 14.9 39 17.5 L 42 20.5 L 41 21.5 L 40.5 24 L 38 22.5 L 39 19.5 L 38 17 L 34 14.5 L 41.5 8 Z " /><path fill="rgb(249,249,249)" stroke="rgb(249,249,249)" stroke-width="1" opacity="1" d="M 28 18 Q 31 17 30 20 Q 27 21 28 18 Z " /><path fill="rgb(249,249,249)" stroke="rgb(249,249,249)" stroke-width="1" opacity="1" d="M 52.5 20 L 60 20.5 L 52.5 21 L 52.5 20 Z " /><path fill="rgb(249,249,249)" stroke="rgb(249,249,249)" stroke-width="1" opacity="1" d="M 0 22 Q 3.8 21.3 5 24.5 L 4.5 26 Q 3.4 23.3 0 24 L 0 22 Z " /><path fill="rgb(249,249,249)" stroke="rgb(249,249,249)" stroke-width="1" opacity="1" d="M 26.5 22 Q 30.3 21.3 31 23.5 Q 30.3 25.8 32.5 25 Q 35.5 26.5 32.5 28 L 26.5 22 Z " /><path fill="rgb(249,249,249)" stroke="rgb(249,249,249)" stroke-width="1" opacity="1" d="M 11.5 23 L 12 24.5 L 0.5 35 L 0 33.5 L 4 28 L 6.5 28 L 11.5 23 Z " /><path fill="rgb(249,249,249)" stroke="rgb(249,249,249)" stroke-width="1" opacity="1" d="M 89.5 23 L 95 23.5 L 89.5 24 L 89.5 23 Z " /><path fill="rgb(249,249,249)" stroke="rgb(249,249,249)" stroke-width="1" opacity="1" d="M 16.5 26 L 15.5 28 L 16.5 26 Z " /><path fill="rgb(249,249,249)" stroke="rgb(249,249,249)" stroke-width="1" opacity="1" d="M 20.5 26 L 19.5 28 L 20.5 26 Z " /><path fill="rgb(249,249,249)" stroke="rgb(249,249,249)" stroke-width="1" opacity="1" d="M 81.5 26 L 80.5 28 L 81.5 26 Z " /><path fill="rgb(249,249,249)" stroke="rgb(249,249,249)" stroke-width="1" opacity="1" d="M 101.5 26 L 108 31.5 L 102.5 27 L 101.5 26 Z " /><path fill="rgb(249,249,249)" stroke="rgb(249,249,249)" stroke-width="1" opacity="1" d="M 25.5 28 L 26 34.5 L 25 34.5 L 25.5 28 Z " /><path fill="rgb(249,249,249)" stroke="rgb(249,249,249)" stroke-width="1" opacity="1" d="M 100.5 28 L 99.5 30 L 92 29.5 L 100.5 28 Z " /><path fill="rgb(249,249,249)" stroke="rgb(249,249,249)" stroke-width="1" opacity="1" d="M 34.5 29 L 33.5 31 L 34.5 29 Z " /><path fill="rgb(249,249,249)" stroke="rgb(249,249,249)" stroke-width="1" opacity="1" d="M 81.5 31 L 80.5 33 L 81.5 31 Z " /><path fill="rgb(249,249,249)" stroke="rgb(249,249,249)" stroke-width="1" opacity="1" d="M 30.5 32 L 29.5 34 L 30.5 32 Z " /><path fill="rgb(249,249,249)" stroke="rgb(249,249,249)" stroke-width="1" opacity="1" d="M 87.5 32 L 86.5 34 L 87.5 32 Z " /><path fill="rgb(249,249,249)" stroke="rgb(249,249,249)" stroke-width="1" opacity="1" d="M 8.5 35 L 9 37 L 12 38.5 L 12 40.5 L 6.5 46 L 4.5 47 L 4 45.5 L 10 40.5 L 7 36.5 L 8.5 35 Z " /><path fill="rgb(249,249,249)" stroke="rgb(249,249,249)" stroke-width="1" opacity="1" d="M 25.5 38 L 24.5 40 L 25.5 38 Z " /><path fill="rgb(249,249,249)" stroke="rgb(249,249,249)" stroke-width="1" opacity="1" d="M 36.5 39 L 35.5 41 L 36.5 39 Z " /><path fill="rgb(249,249,249)" stroke="rgb(249,249,249)" stroke-width="1" opacity="1" d="M 60.5 40 L 61 44.5 L 60 44.5 L 59 41.5 L 60.5 40 Z " /><path fill="rgb(249,249,249)" stroke="rgb(249,249,249)" stroke-width="1" opacity="1" d="M 108.5 40 L 109 43.5 L 108 43.5 L 108.5 40 Z " /><path fill="rgb(249,249,249)" stroke="rgb(249,249,249)" stroke-width="1" opacity="1" d="M 77.5 42 L 78 45.5 L 77 45.5 L 77.5 42 Z " /><path fill="rgb(249,249,249)" stroke="rgb(249,249,249)" stroke-width="1" opacity="1" d="M 15.5 43 Q 18.5 44.5 15.5 46 L 15.5 43 Z " /><path fill="rgb(249,249,249)" stroke="rgb(249,249,249)" stroke-width="1" opacity="1" d="M 116.5 45 L 122 47 Q 122.8 50.8 119.5 52 L 110 60.5 L 111 63.5 L 109.5 64 L 104 59.5 L 108 56.5 L 106.5 59 L 110.5 58 L 119 49.5 L 117.5 47 Q 114.7 47.7 116.5 45 Z " /><path fill="rgb(249,249,249)" stroke="rgb(249,249,249)" stroke-width="1" opacity="1" d="M 51.5 46 L 52 47.5 L 50.5 51 L 50 47.5 L 51.5 46 Z " /><path fill="rgb(249,249,249)" stroke="rgb(249,249,249)" stroke-width="1" opacity="1" d="M 66.5 46 L 67 48.5 L 66 48.5 L 66.5 46 Z " /><path fill="rgb(249,249,249)" stroke="rgb(249,249,249)" stroke-width="1" opacity="1" d="M 106.5 46 L 108 46.5 L 105.5 48 L 106.5 46 Z " /><path fill="rgb(249,249,249)" stroke="rgb(249,249,249)" stroke-width="1" opacity="1" d="M 104.5 50 L 103.5 52 L 104.5 50 Z " /><path fill="rgb(249,249,249)" stroke="rgb(249,249,249)" stroke-width="1" opacity="1" d="M 43.5 51 L 44 53.5 L 43 53.5 L 43.5 51 Z " /><path fill="rgb(249,249,249)" stroke="rgb(249,249,249)" stroke-width="1" opacity="1" d="M 91.5 51 L 93.5 54 L 91.5 51 Z " /><path fill="rgb(249,249,249)" stroke="rgb(249,249,249)" stroke-width="1" opacity="1" d="M 19.5 52 L 20 54.5 L 19 54.5 L 19.5 52 Z " /><path fill="rgb(249,249,249)" stroke="rgb(249,249,249)" stroke-width="1" opacity="1" d="M 23.5 52 L 24 56.5 L 23 56.5 L 23.5 52 Z " /><path fill="rgb(249,249,249)" stroke="rgb(249,249,249)" stroke-width="1" opacity="1" d="M 58 54 Q 61 53 60 56 Q 57 57 58 54 Z " /><path fill="rgb(249,249,249)" stroke="rgb(249,249,249)" stroke-width="1" opacity="1" d="M 95.5 54 L 100 54.5 L 95.5 55 L 95.5 54 Z " /><path fill="rgb(249,249,249)" stroke="rgb(249,249,249)" stroke-width="1" opacity="1" d="M 31.5 55 L 33 57.5 L 31 56.5 L 31.5 55 Z " /><path fill="rgb(249,249,249)" stroke="rgb(249,249,249)" stroke-width="1" opacity="1" d="M 79.5 55 Q 82.3 56.3 80 57.5 L 79.5 59 L 79.5 55 Z " /><path fill="rgb(249,249,249)" stroke="rgb(249,249,249)" stroke-width="1" opacity="1" d="M 65.5 56 L 66 59.5 L 64 58.5 L 65.5 56 Z " /><path fill="rgb(249,249,249)" stroke="rgb(249,249,249)" stroke-width="1" opacity="1" d="M 88.5 57 L 90 59.5 L 89 59.5 L 88.5 57 Z " /><path fill="rgb(249,249,249)" stroke="rgb(249,249,249)" stroke-width="1" opacity="1" d="M 30.5 58 L 31.5 60 L 30 59.5 L 29.5 61 L 29 59.5 L 30.5 58 Z " /><path fill="rgb(249,249,249)" stroke="rgb(249,249,249)" stroke-width="1" opacity="1" d="M 52.5 58 Q 55.3 59.3 53 60.5 L 52.5 62 L 52.5 58 Z " /><path fill="rgb(249,249,249)" stroke="rgb(249,249,249)" stroke-width="1" opacity="1" d="M 82.5 58 L 83.5 60 L 82.5 58 Z " /><path fill="rgb(249,249,249)" stroke="rgb(249,249,249)" stroke-width="1" opacity="1" d="M 13.5 59 L 12.5 61 L 13.5 59 Z " /><path fill="rgb(249,249,249)" stroke="rgb(249,249,249)" stroke-width="1" opacity="1" d="M 35.5 60 Q 38.1 59.2 37 62.5 L 36 62.5 L 35.5 60 Z " /><path fill="rgb(249,249,249)" stroke="rgb(249,249,249)" stroke-width="1" opacity="1" d="M 45.5 60 L 46.5 62 L 45.5 60 Z " /><path fill="rgb(249,249,249)" stroke="rgb(249,249,249)" stroke-width="1" opacity="1" d="M 73.5 60 L 74 63.5 L 73 63.5 L 73.5 60 Z " /><path fill="rgb(249,249,249)" stroke="rgb(249,249,249)" stroke-width="1" opacity="1" d="M 102.5 60 L 103.5 62 L 102.5 60 Z " /><path fill="rgb(249,249,249)" stroke="rgb(249,249,249)" stroke-width="1" opacity="1" d="M 39.5 62 L 39 63.5 L 38.5 65 L 38 63.5 L 39.5 62 Z " /><path fill="rgb(249,249,249)" stroke="rgb(249,249,249)" stroke-width="1" opacity="1" d="M 58.5 62 L 62 62.5 L 58.5 63 L 58.5 62 Z " /><path fill="rgb(249,249,249)" stroke="rgb(249,249,249)" stroke-width="1" opacity="1" d="M 11.5 63 L 10.5 65 L 11.5 63 Z " /><path fill="rgb(249,249,249)" stroke="rgb(249,249,249)" stroke-width="1" opacity="1" d="M 14.5 63 L 13.5 65 L 14.5 63 Z " /><path fill="rgb(249,249,249)" stroke="rgb(249,249,249)" stroke-width="1" opacity="1" d="M 48.5 63 L 49.5 65 L 48.5 63 Z " /><path fill="rgb(249,249,249)" stroke="rgb(249,249,249)" stroke-width="1" opacity="1" d="M 89.5 63 L 90.5 65 Q 87.7 65.7 89.5 63 Z " /><path fill="rgb(249,249,249)" stroke="rgb(249,249,249)" stroke-width="1" opacity="1" d="M 34.5 64 L 35.5 66 L 34.5 64 Z " /><path fill="rgb(249,249,249)" stroke="rgb(249,249,249)" stroke-width="1" opacity="1" d="M 56.5 64 L 64 64.5 L 56.5 65 L 56.5 64 Z " /><path fill="rgb(249,249,249)" stroke="rgb(249,249,249)" stroke-width="1" opacity="1" d="M 69.5 64 L 70 66 L 68 65.5 L 69.5 64 Z " /><path fill="rgb(249,249,249)" stroke="rgb(249,249,249)" stroke-width="1" opacity="1" d="M 96.5 66 L 97.5 68 L 96.5 66 Z " /><path fill="rgb(249,249,249)" stroke="rgb(249,249,249)" stroke-width="1" opacity="1" d="M 23.5 67 L 24 70.5 L 23 70.5 L 23.5 67 Z " /><path fill="rgb(249,249,249)" stroke="rgb(249,249,249)" stroke-width="1" opacity="1" d="M 25.5 68 L 26 71.5 L 25 71.5 L 25.5 68 Z " /><path fill="rgb(249,249,249)" stroke="rgb(249,249,249)" stroke-width="1" opacity="1" d="M 91.5 68 L 91.5 71 Q 88.5 69.5 91.5 68 Z " /><path fill="rgb(249,249,249)" stroke="rgb(249,249,249)" stroke-width="1" opacity="1" d="M 117.5 68 L 116.5 70 L 117.5 68 Z " /><path fill="rgb(249,249,249)" stroke="rgb(249,249,249)" stroke-width="1" opacity="1" d="M 31.5 69 L 30.5 71 L 31.5 69 Z " /><path fill="rgb(249,249,249)" stroke="rgb(249,249,249)" stroke-width="1" opacity="1" d="M 61.5 69 L 66 69.5 L 61.5 70 L 61.5 69 Z " /><path fill="rgb(249,249,249)" stroke="rgb(249,249,249)" stroke-width="1" opacity="1" d="M 105.5 70 L 106.5 72 L 105.5 70 Z " /><path fill="rgb(249,249,249)" stroke="rgb(249,249,249)" stroke-width="1" opacity="1" d="M 124.5 70 Q 127.1 69.3 126 72 L 118.5 74 L 119.5 72 L 124.5 70 Z " /><path fill="rgb(249,249,249)" stroke="rgb(249,249,249)" stroke-width="1" opacity="1" d="M 100.5 71 L 103.5 75 L 100.5 71 Z " /><path fill="rgb(249,249,249)" stroke="rgb(249,249,249)" stroke-width="1" opacity="1" d="M 112.5 71 L 111.5 73 L 109 72.5 L 112.5 71 Z " /><path fill="rgb(249,249,249)" stroke="rgb(249,249,249)" stroke-width="1" opacity="1" d="M 59.5 72 L 57.5 75 L 59.5 72 Z " /><path fill="rgb(249,249,249)" stroke="rgb(249,249,249)" stroke-width="1" opacity="1" d="M 65.5 72 L 66 74.5 L 65 74.5 L 65.5 72 Z " /><path fill="rgb(249,249,249)" stroke="rgb(249,249,249)" stroke-width="1" opacity="1" d="M 33.5 73 L 38 73.5 L 33.5 74 L 33.5 73 Z " /><path fill="rgb(249,249,249)" stroke="rgb(249,249,249)" stroke-width="1" opacity="1" d="M 41.5 73 L 45 74 L 44.5 77 L 43.5 75 L 42 75.5 L 41.5 74 L 40 74.5 L 41.5 73 Z " /><path fill="rgb(249,249,249)" stroke="rgb(249,249,249)" stroke-width="1" opacity="1" d="M 87.5 73 L 86.5 75 L 87.5 73 Z " /><path fill="rgb(249,249,249)" stroke="rgb(249,249,249)" stroke-width="1" opacity="1" d="M 54.5 74 L 53.5 76 L 54.5 74 Z " /><path fill="rgb(249,249,249)" stroke="rgb(249,249,249)" stroke-width="1" opacity="1" d="M 13.5 75 L 12.5 77 L 13.5 75 Z " /><path fill="rgb(249,249,249)" stroke="rgb(249,249,249)" stroke-width="1" opacity="1" d="M 91.5 75 L 90.5 77 L 89 76.5 L 91.5 75 Z " /><path fill="rgb(249,249,249)" stroke="rgb(249,249,249)" stroke-width="1" opacity="1" d="M 94.5 75 L 93.5 77 L 94.5 75 Z " /><path fill="rgb(249,249,249)" stroke="rgb(249,249,249)" stroke-width="1" opacity="1" d="M 29.5 77 L 30 79 L 28 78.5 L 29.5 77 Z " /><path fill="rgb(249,249,249)" stroke="rgb(249,249,249)" stroke-width="1" opacity="1" d="M 60.5 78 L 63 78.5 L 60.5 79 L 60.5 78 Z " /><path fill="rgb(249,249,249)" stroke="rgb(249,249,249)" stroke-width="1" opacity="1" d="M 98.5 78 L 99.5 80 L 98.5 78 Z " /><path fill="rgb(249,249,249)" stroke="rgb(249,249,249)" stroke-width="1" opacity="1" d="M 57.5 79 L 58 82.5 L 57 82.5 L 57.5 79 Z " /><path fill="rgb(249,249,249)" stroke="rgb(249,249,249)" stroke-width="1" opacity="1" d="M 84.5 79 L 83.5 81 L 84.5 79 Z " /><path fill="rgb(249,249,249)" stroke="rgb(249,249,249)" stroke-width="1" opacity="1" d="M 22.5 80 L 25 81.5 L 24.5 83 L 24 81 L 22.5 80 Z " /><path fill="rgb(249,249,249)" stroke="rgb(249,249,249)" stroke-width="1" opacity="1" d="M 75.5 80 L 74.5 82 L 75.5 80 Z " /><path fill="rgb(249,249,249)" stroke="rgb(249,249,249)" stroke-width="1" opacity="1" d="M 106.5 80 L 107 81.5 L 105 82.5 L 106.5 80 Z " /><path fill="rgb(249,249,249)" stroke="rgb(249,249,249)" stroke-width="1" opacity="1" d="M 26.5 82 Q 29.3 83.3 27 84.5 L 26.5 86 L 26.5 82 Z " /><path fill="rgb(249,249,249)" stroke="rgb(249,249,249)" stroke-width="1" opacity="1" d="M 29.5 82 L 31 84.5 L 29 83.5 L 29.5 82 Z " /><path fill="rgb(249,249,249)" stroke="rgb(249,249,249)" stroke-width="1" opacity="1" d="M 81.5 82 L 80.5 84 L 81.5 82 Z " /><path fill="rgb(249,249,249)" stroke="rgb(249,249,249)" stroke-width="1" opacity="1" d="M 87.5 83 L 85.5 86 L 87.5 83 Z " /><path fill="rgb(249,249,249)" stroke="rgb(249,249,249)" stroke-width="1" opacity="1" d="M 24.5 84 L 25 86.5 L 24 86.5 L 24.5 84 Z " /><path fill="rgb(249,249,249)" stroke="rgb(249,249,249)" stroke-width="1" opacity="1" d="M 78.5 85 L 79.5 87 L 78.5 85 Z " /><path fill="rgb(249,249,249)" stroke="rgb(249,249,249)" stroke-width="1" opacity="1" d="M 90.5 85 L 89.5 87 L 90.5 85 Z " /><path fill="rgb(249,249,249)" stroke="rgb(249,249,249)" stroke-width="1" opacity="1" d="M 55.5 87 L 58 88.5 L 56.5 88 L 55.5 87 Z " /><path fill="rgb(249,249,249)" stroke="rgb(249,249,249)" stroke-width="1" opacity="1" d="M 77.5 88 L 76.5 90 L 77.5 88 Z " /><path fill="rgb(249,249,249)" stroke="rgb(249,249,249)" stroke-width="1" opacity="1" d="M 71.5 89 L 71 90.5 L 70.5 92 L 70 90.5 L 71.5 89 Z " /><path fill="rgb(249,249,249)" stroke="rgb(249,249,249)" stroke-width="1" opacity="1" d="M 72.5 97 L 73.5 99 L 72.5 97 Z " /><path fill="rgb(249,249,249)" stroke="rgb(249,249,249)" stroke-width="1" opacity="1" d="M 66.5 98 L 69 98.5 Q 66.9 101.8 66.5 98 Z " /><path fill="rgb(249,249,249)" stroke="rgb(249,249,249)" stroke-width="1" opacity="1" d="M 64.5 99 L 66.5 102 L 64.5 99 Z " /><path fill="rgb(249,249,249)" stroke="rgb(249,249,249)" stroke-width="1" opacity="1" d="M 18.5 104 L 19.5 106 L 18.5 104 Z " /><path fill="rgb(249,249,249)" stroke="rgb(249,249,249)" stroke-width="1" opacity="1" d="M 70.5 104 L 71.5 106 L 70.5 104 Z " /><path fill="rgb(249,249,249)" stroke="rgb(249,249,249)" stroke-width="1" opacity="1" d="M 68.5 105 L 67.5 107 L 68.5 105 Z " /><path fill="rgb(249,249,249)" stroke="rgb(249,249,249)" stroke-width="1" opacity="1" d="M 22.5 106 L 23.5 108 L 22.5 106 Z " /><path fill="rgb(249,249,249)" stroke="rgb(249,249,249)" stroke-width="1" opacity="1" d="M 69.5 108 L 68.5 110 L 69.5 108 Z " /><path fill="rgb(249,249,249)" stroke="rgb(249,249,249)" stroke-width="1" opacity="1" d="M 44.5 109 L 45.5 111 L 44.5 109 Z " /><path fill="rgb(249,249,249)" stroke="rgb(249,249,249)" stroke-width="1" opacity="1" d="M 34.5 111 L 39 112 L 38.5 114 L 34.5 112 L 34.5 111 Z " /><path fill="rgb(249,249,249)" stroke="rgb(249,249,249)" stroke-width="1" opacity="1" d="M 51.5 111 L 52.5 113 L 51.5 111 Z " /><path fill="rgb(249,249,249)" stroke="rgb(249,249,249)" stroke-width="1" opacity="1" d="M 32.5 112 L 31.5 114 L 32.5 112 Z " /><path fill="rgb(249,249,249)" stroke="rgb(249,249,249)" stroke-width="1" opacity="1" d="M 29.5 114 L 30.5 115 L 40 115.5 L 28.5 116 L 29.5 114 Z " /><path fill="rgb(249,249,249)" stroke="rgb(249,249,249)" stroke-width="1" opacity="1" d="M 54.5 114 L 53.5 116 L 52 115.5 L 54.5 114 Z " /><path fill="rgb(249,249,249)" stroke="rgb(249,249,249)" stroke-width="1" opacity="1" d="M 44.5 115 L 48 115.5 L 44.5 116 L 44.5 115 Z " /><path fill="rgb(249,249,249)" stroke="rgb(249,249,249)" stroke-width="1" opacity="1" d="M 68.5 115 L 71 115.5 L 68.5 116 L 68.5 115 Z " /><path fill="rgb(249,249,249)" stroke="rgb(249,249,249)" stroke-width="1" opacity="1" d="M 79.5 115 L 80 117.5 L 79 117.5 L 79.5 115 Z " /><path fill="rgb(249,249,249)" stroke="rgb(249,249,249)" stroke-width="1" opacity="1" d="M 25.5 128 L 31 129.5 L 23.5 130 L 23.5 129 L 25.5 128 Z " /></svg>