<svg width="126" height="130" version="1.1" xmlns="http://www.w3.org/2000/svg" desc="Created with imagetracer.js version 1.2.6" ><path fill="rgb(116,116,116)" stroke="rgb(116,116,116)" stroke-width="1" opacity="1" d="M 28.5 20 L 35.5 21 L 41.5 24 Q 48.4 18.9 62.5 21 L 80.5 28 Q 84.5 22 96.5 24 Q 103.9 26.6 108 32.5 Q 112.2 37.3 111 47.5 Q 109.5 56 103.5 60 L 102 60.5 L 107.5 64 L 111.5 64 L 118 66.5 L 112.5 75 L 108.5 74 L 111 77.5 L 105.5 87 L 100 85 L 95 75 Q 92 73.8 93 77.5 L 91 79.5 Q 91.8 85.3 88.5 87 L 69 95.5 L 73 98.5 L 79 112.5 L 79 118 L 27.5 118 L 26 116.5 L 13 94.5 L 12 90 L 25 87 L 24.5 79 L 21.5 80 L 16 78 L 15.5 76 L 13.5 79 L 6 73.5 L 17 51.5 L 13 47.5 L 12 37.5 Q 13.7 26.7 21.5 22 L 28.5 20 Z M 27 22 L 25 26 L 26 35 L 37 25 Q 34 21 27 22 Z M 49 23 Q 37 25 31 32 Q 22 39 19 51 Q 17 64 21 72 L 22 72 L 21 69 Q 20 61 23 57 L 23 72 L 26 79 L 27 79 L 26 75 L 27 59 L 34 43 L 36 42 L 34 50 Q 33 59 37 64 L 37 58 L 40 48 L 43 46 Q 41 58 47 63 Q 46 65 49 64 L 51 66 L 50 64 Q 48 54 52 49 L 53 63 Q 58 54 60 42 L 62 55 L 66 60 L 67 50 L 70 60 Q 69 62 72 61 L 71 59 L 72 55 Q 74 58 73 64 L 76 71 L 77 71 L 77 50 L 75 46 L 75 40 L 78 31 L 71 25 L 64 23 L 49 23 Z M 21 26 L 17 30 Q 16 33 19 32 Q 20 34 21 32 L 21 26 Z M 89 26 L 83 29 Q 78 34 77 42 L 77 48 L 80 54 Q 85 61 95 61 Q 96 57 91 59 L 83 50 Q 81 39 86 35 Q 89 28 101 30 Q 103 31 102 35 Q 95 34 91 37 L 89 42 Q 88 49 91 52 Q 93 56 101 55 L 105 51 L 105 49 L 108 47 L 109 45 L 109 40 L 105 32 L 97 26 L 89 26 Z M 16 36 L 14 42 L 15 47 L 18 49 Q 21 45 20 38 L 16 36 Z M 59 53 L 55 62 L 59 63 Q 63 64 64 62 L 59 53 Z M 41 55 L 39 58 Q 37 63 43 61 L 41 55 Z M 80 55 Q 80 74 73 85 L 72 87 L 77 85 Q 84 79 86 68 L 86 62 L 80 55 Z M 31 58 L 29 60 L 27 69 Q 26 73 29 74 L 30 72 L 36 68 L 34 60 L 31 58 Z M 16 61 L 8 72 L 8 74 L 13 77 L 17 69 L 16 61 Z M 38 62 L 38 67 L 44 69 L 47 78 L 45 79 L 43 79 L 43 83 Q 40 82 41 87 L 48 89 L 57 88 L 54 92 L 58 93 L 59 90 L 58 78 L 53 80 L 54 76 L 61 70 L 69 71 L 74 80 L 75 78 L 75 72 L 71 64 L 69 65 L 68 64 L 56 64 L 55 63 L 52 68 L 50 68 L 45 64 L 45 62 L 38 62 Z M 103 65 L 105 71 L 112 73 L 115 67 L 103 65 Z M 97 66 L 95 70 L 95 73 L 99 81 L 105 84 Q 108 82 108 78 L 104 74 L 97 66 Z M 92 68 L 85 76 L 88 76 L 92 71 L 92 68 Z M 36 69 L 33 71 L 31 74 Q 40 73 45 77 L 45 74 L 41 73 Q 43 66 36 69 Z M 63 71 L 58 74 Q 55 73 56 76 L 56 77 L 58 76 Q 65 75 69 78 L 71 78 L 68 76 L 66 73 L 63 71 Z M 35 75 L 32 76 L 32 87 L 40 87 Q 39 81 42 79 Q 40 75 35 75 Z M 28 77 L 29 83 L 27 82 L 26 86 L 30 87 Q 32 86 31 82 L 30 79 Q 31 76 28 77 Z M 60 78 L 59 82 L 60 83 L 60 95 L 69 94 L 68 90 L 69 87 L 68 81 Q 65 77 60 78 Z M 85 79 L 83 81 Q 80 80 81 83 Q 76 85 80 87 L 86 86 Q 90 86 89 81 Q 88 78 85 79 Z M 77 86 L 72 89 Q 68 88 70 92 Q 75 93 78 89 Q 79 85 77 86 Z M 25 88 L 16 90 L 14 92 L 14 94 L 24 108 L 28 106 L 44 107 L 53 113 L 69 103 Q 59 94 45 89 L 40 88 L 25 88 Z M 67 97 L 66 99 L 70 101 L 71 104 L 69 105 L 68 107 L 73 105 L 71 99 L 67 97 Z M 71 107 L 68 110 L 68 116 L 76 116 L 75 112 Q 77 105 71 107 Z M 26 108 L 24 110 L 26 114 L 31 112 L 30 110 Q 31 106 26 108 Z M 39 108 L 41 114 L 43 115 Q 42 112 45 113 L 46 111 L 39 108 Z M 65 109 Q 63 112 59 111 L 52 116 L 66 116 L 66 110 L 65 109 Z M 35 111 L 28 116 L 40 116 L 39 112 L 35 111 Z M 48 111 L 44 116 Q 48 117 50 115 Q 52 116 51 114 L 48 111 Z " /><path fill="rgb(254,254,254)" stroke="rgb(254,254,254)" stroke-width="1" opacity="1" d="M 0 0 L 126 0 L 126 130 L 0 130 L 0 0 Z M 29 20 L 22 22 Q 14 27 12 38 L 13 48 L 17 52 L 10 66 L 11 68 L 16 61 L 17 67 Q 16 73 13 77 L 11 76 L 8 71 L 6 74 L 14 79 L 15 77 L 17 76 L 16 78 L 22 80 L 25 79 L 25 87 L 12 90 L 13 95 L 26 117 L 28 118 L 79 118 L 79 113 L 73 99 L 69 96 L 89 87 Q 92 85 91 80 L 93 78 Q 92 74 95 75 L 100 85 L 106 87 L 111 78 L 109 74 L 113 75 L 118 67 L 112 64 L 108 64 L 102 61 L 104 60 Q 110 56 111 48 Q 112 37 108 33 Q 104 27 97 24 Q 85 22 81 28 L 63 21 Q 48 19 42 24 L 36 21 L 29 20 Z " /><path fill="rgb(254,254,254)" stroke="rgb(254,254,254)" stroke-width="1" opacity="1" d="M 26.5 22 Q 34.5 20.5 37 24.5 L 25.5 35 L 25 25.5 L 26.5 22 Z " /><path fill="rgb(254,254,254)" stroke="rgb(254,254,254)" stroke-width="1" opacity="1" d="M 48.5 23 L 63.5 23 L 70.5 25 L 78 30.5 L 75 39.5 L 75 45.5 L 77 49.5 L 77 70.5 L 76 70.5 L 73 63.5 Q 73.8 57.8 71.5 55 L 71 58.5 L 72 61 Q 69.3 62.1 70 59.5 L 66.5 50 L 65.5 60 L 62 54.5 L 59.5 42 Q 57.5 54 52.5 63 L 51.5 49 Q 48.4 53.9 50 63.5 L 51 65.5 L 48.5 64 Q 46.3 64.8 47 62.5 Q 41.2 57.5 43 46 L 40 47.5 L 37 57.5 L 36.5 64 Q 32.9 59.1 34 49.5 L 36 41.5 L 34 42.5 L 27 58.5 L 26 74.5 L 27 78.5 L 26 78.5 L 23 71.5 L 22.5 57 Q 19.8 60.8 21 68.5 L 22 71.5 L 21 71.5 Q 17.1 63.9 19 50.5 Q 22 38.5 30.5 32 Q 37.5 25.5 48.5 23 Z " /><path fill="rgb(254,254,254)" stroke="rgb(254,254,254)" stroke-width="1" opacity="1" d="M 20.5 26 L 21 31.5 Q 19.7 34.3 18.5 32 Q 15.9 32.8 17 29.5 L 20.5 26 Z " /><path fill="rgb(254,254,254)" stroke="rgb(254,254,254)" stroke-width="1" opacity="1" d="M 88.5 26 L 96.5 26 L 105 31.5 L 109 39.5 L 109 44.5 L 108 47 L 105 48.5 L 105 50.5 L 100.5 55 Q 92.5 56.5 91 51.5 Q 88 48.5 89 41.5 L 91 37 Q 94.5 34 102 35 Q 103 31.2 100.5 30 Q 89 28 86 34.5 Q 81.1 38.6 83 49.5 L 90.5 59 Q 96.3 57.3 95 61 Q 84.6 60.5 80 53.5 L 77 47.5 L 77 41.5 Q 78.3 33.8 82.5 29 L 88.5 26 Z " /><path fill="rgb(254,254,254)" stroke="rgb(254,254,254)" stroke-width="1" opacity="1" d="M 15.5 36 L 20 38 Q 20.9 45.1 17.5 49 L 15 46.5 L 14 41.5 L 15.5 36 Z " /><path fill="rgb(254,254,254)" stroke="rgb(254,254,254)" stroke-width="1" opacity="1" d="M 58.5 53 L 64 61.5 Q 63 64 58.5 63 L 55 62 L 58.5 53 Z " /><path fill="rgb(254,254,254)" stroke="rgb(254,254,254)" stroke-width="1" opacity="1" d="M 40.5 55 L 43 61 Q 37.4 63.2 39 57.5 L 40.5 55 Z " /><path fill="rgb(254,254,254)" stroke="rgb(254,254,254)" stroke-width="1" opacity="1" d="M 79.5 55 L 86 61.5 L 86 67.5 Q 83.8 78.8 76.5 85 L 70.5 88 L 73 84.5 Q 80.1 73.6 79.5 55 Z " /><path fill="rgb(254,254,254)" stroke="rgb(254,254,254)" stroke-width="1" opacity="1" d="M 30.5 58 L 34 60 L 36 68 L 30 71.5 L 28.5 74 Q 26 73 27 68.5 L 29 59.5 L 30.5 58 Z " /><path fill="rgb(254,254,254)" stroke="rgb(254,254,254)" stroke-width="1" opacity="1" d="M 38 62 L 44.5 62 L 45 63.5 L 49.5 68 L 52 68 L 54.5 63 L 55.5 64 L 67.5 64 L 68.5 65 L 71 64 L 75 71.5 L 75 77.5 L 73.5 80 L 68.5 71 L 60.5 70 L 56 73.5 L 57.5 74 Q 59.3 70.8 64.5 71 L 67.5 76 L 71 77.5 L 68.5 78 Q 64.9 75.1 57.5 76 L 55.5 77 L 56 75.5 L 55.5 74 L 53 80 L 57.5 78 L 59 89.5 L 57.5 93 L 54 91.5 L 56.5 88 L 47.5 89 L 41 87 Q 39.7 81.7 43 82.5 L 43 78.5 L 44.5 79 L 47 77.5 L 44 69 L 38 67 L 38 62 Z " /><path fill="rgb(254,254,254)" stroke="rgb(254,254,254)" stroke-width="1" opacity="1" d="M 103 65 L 115 67 L 111.5 73 L 105 70.5 L 103 65 Z " /><path fill="rgb(254,254,254)" stroke="rgb(254,254,254)" stroke-width="1" opacity="1" d="M 96.5 66 L 103.5 74 L 108 77.5 Q 107.8 82.3 104.5 84 L 99 80.5 L 95 72.5 L 95 69.5 L 96.5 66 Z " /><path fill="rgb(254,254,254)" stroke="rgb(254,254,254)" stroke-width="1" opacity="1" d="M 91.5 68 L 92 70.5 L 90 73.5 L 93 72.5 L 89.5 78 L 89 76.5 L 90 74.5 L 87.5 76 L 85 75.5 L 91.5 68 Z " /><path fill="rgb(254,254,254)" stroke="rgb(254,254,254)" stroke-width="1" opacity="1" d="M 35.5 69 Q 42.8 66.4 41 72.5 L 45 74 L 44.5 77 L 38.5 74 L 31.5 74 L 30 74.5 L 32.5 71 L 35.5 69 Z " /><path fill="rgb(254,254,254)" stroke="rgb(254,254,254)" stroke-width="1" opacity="1" d="M 34.5 75 Q 40.1 74.9 42 78.5 Q 39.2 81.5 40 87 L 32 87 L 32 76 L 34.5 75 Z " /><path fill="rgb(254,254,254)" stroke="rgb(254,254,254)" stroke-width="1" opacity="1" d="M 28 77 Q 30.7 75.9 30 78.5 L 31 81.5 Q 32 86 29.5 87 L 26 85.5 L 26.5 82 L 29 83 L 28 77 Z " /><path fill="rgb(254,254,254)" stroke="rgb(254,254,254)" stroke-width="1" opacity="1" d="M 60 78 Q 65.3 77.3 68 80.5 L 69 86.5 L 68 89.5 L 69 94 L 60 95 L 60 82.5 L 59 81.5 L 60 78 Z " /><path fill="rgb(254,254,254)" stroke="rgb(254,254,254)" stroke-width="1" opacity="1" d="M 84.5 79 Q 88.3 78.3 89 80.5 Q 89.5 85.5 85.5 86 L 79.5 87 L 78 86.5 L 76.5 90 L 70 92 Q 68.5 88.3 71.5 89 L 81 82.5 Q 80.3 80.3 82.5 81 L 84.5 79 Z " /><path fill="rgb(254,254,254)" stroke="rgb(254,254,254)" stroke-width="1" opacity="1" d="M 24.5 88 L 39.5 88 L 44.5 89 Q 59 93.5 69 102.5 L 52.5 113 L 49.5 111 L 51 113.5 Q 51.8 115.8 49.5 115 Q 48.3 117.3 43.5 116 L 39 110.5 L 39 108 L 46 110.5 L 45 112.5 L 47.5 111 L 49 110.5 L 43.5 107 L 27.5 106 L 23.5 108 L 14 93.5 L 14 91.5 L 15.5 90 L 24.5 88 Z " /><path fill="rgb(254,254,254)" stroke="rgb(254,254,254)" stroke-width="1" opacity="1" d="M 66.5 97 L 71 99 L 73 104.5 L 67.5 107 L 68.5 105 L 71 103.5 L 70 101 L 66 98.5 L 66.5 97 Z " /><path fill="rgb(254,254,254)" stroke="rgb(254,254,254)" stroke-width="1" opacity="1" d="M 70.5 107 Q 77.3 104.8 75 111.5 L 76 116 L 68 116 L 68 109.5 L 70.5 107 Z " /><path fill="rgb(254,254,254)" stroke="rgb(254,254,254)" stroke-width="1" opacity="1" d="M 25.5 108 Q 30.9 106.1 30 109.5 L 31 112 L 26 114 L 24 109.5 L 25.5 108 Z " /><path fill="rgb(254,254,254)" stroke="rgb(254,254,254)" stroke-width="1" opacity="1" d="M 64.5 109 L 66 109.5 L 66 116 L 52 115.5 L 58.5 111 Q 63.1 111.6 64.5 109 Z " /><path fill="rgb(254,254,254)" stroke="rgb(254,254,254)" stroke-width="1" opacity="1" d="M 34.5 111 L 39 112 L 40 116 L 28 115.5 L 34.5 111 Z " /></svg>